<?xml version="1.0" standalone="no"?>
<!DOCTYPE svg PUBLIC "-//W3C//DTD SVG 1.1//EN" "http://www.w3.org/Graphics/SVG/1.1/DTD/svg11.dtd" >
<svg xmlns="http://www.w3.org/2000/svg">
<metadata>Generated by IcoMoon</metadata>
<defs>
<font id="Backend-icons" horiz-adv-x="1024">
<font-face units-per-em="1024" ascent="960" descent="-64" />
<missing-glyph horiz-adv-x="1024" />
<glyph unicode="&#x20;" horiz-adv-x="512" d="" />
<glyph unicode="&#xe900;" glyph-name="arrow" d="M834.947 374.235c-45.702 19.008-105.561 33.568-173.506 42.063 3.91 37.883 5.798 77.247 5.798 116.478s-1.887 78.597-5.798 116.614c67.945 8.493 127.669 23.052 173.371 42.196 23.594-47.859 36.938-101.784 36.938-158.81 0.002-56.892-13.212-110.682-36.802-158.541zM499.125 892.324c4.314 0.136 8.629 0.271 12.942 0.271 4.315 0 8.629-0.136 12.942-0.271 25.617-17.391 58.913-83.314 76.442-194.806-59.993-4.449-121.873-4.044-178.763 0.808 17.659 111.087 50.824 176.74 76.437 193.998zM410.688 532.776c0 40.714 1.887 78.057 5.259 112.031 32.626-2.967 66.598-4.314 101.381-4.314 30.333 0 60.801 1.213 90.729 3.504 3.372-33.837 5.259-70.912 5.259-111.221s-1.887-77.384-5.259-111.089c-29.119 2.428-59.586 3.505-90.729 3.505-34.783 0-68.891-1.349-101.381-4.314-3.372 33.974-5.259 71.319-5.259 111.897zM807.039 738.368c-40.175-15.773-92.481-28.041-152.205-35.455-10.784 70.641-28.58 133.6-52.982 178.358 84.261-21.706 156.654-73.341 205.187-142.903zM422.281 881.269c-24.4-44.489-42.063-106.908-52.982-177.011-58.913 8.088-111.086 21.166-149.912 37.478 48.533 67.812 119.85 118.096 202.894 139.533zM783.705 206.205c95.314 78.461 155.452 193.777 155.452 326.571 0 235.654-191.57 427.224-427.088 427.224-209.905 0-384.76-151.935-420.484-351.729-4.449-24.536-6.741-49.746-6.741-75.495 0-235.661 125.336-420.467 366.984-490.123v-106.653l356.206 205.7-356.206 205.662v-101.023c-194.945 0-298.888 158.071-298.888 308.092 1.081 18.367 3.485 36.389 7.265 53.84 6.606 30.603 16.986 59.722 31.006 86.819 44.489-19.817 103.672-35.186 171.483-44.353-4.044-38.422-5.932-78.192-5.932-117.962 0-39.635 1.887-79.405 5.932-117.829-41.253-5.527-79.27-13.481-112.837-23.321 2.021-2.428 3.775-4.852 5.662-7.28 5.932-7.551 11.46-14.83 17.256-20.358l1.349-1.213 1.213-1.484c4.314-4.851 9.572-9.572 15.368-14.425 24.133 5.798 50.554 10.785 78.597 14.56 3.775-23.999 8.224-47.050 13.481-68.755h0.134c8.763-2.697 16.314-4.989 21.705-5.261h1.618c0 0 3.91-0.403 5.123-0.539v130.5l80.484-46.376c8.493 0.134 16.986 0.268 25.48 0.268 28.849 0 57.162-1.078 84.124-3.1-3.102-19.548-6.606-37.747-10.516-54.464l48.533-28.041c6.067 24.133 11.324 50.151 15.37 77.115 59.855-7.416 112.165-19.684 152.338-35.455-23.862-34.108-53.385-63.901-87.358-88.034l63.888-33.076z" />
<glyph unicode="&#xe901;" glyph-name="arrow-down-sign-to-navigate" d="M511.999 156.146c-18.352 0-36.702 7.007-50.694 20.992l-440.297 440.301c-28.009 28.009-28.009 73.42 0 101.417 27.997 27.997 73.399 27.997 101.41 0l389.58-389.603 389.583 389.589c28.009 27.997 73.406 27.997 101.401 0 28.022-27.997 28.022-73.408 0-101.417l-440.29-440.301c-13.999-13.987-32.349-20.979-50.694-20.979z" />
<glyph unicode="&#xe902;" glyph-name="arrowhead-thin-outline-to-the-left" d="M220.146 448.008c0 18.345 7.005 36.695 20.983 50.687l440.308 440.297c28.009 28.009 73.42 28.009 101.417 0 27.997-27.997 27.997-73.399 0-101.41l-389.603-389.574 389.576-389.589c27.997-27.997 27.997-73.406 0-101.401-27.997-28.022-73.395-28.022-101.404 0l-440.31 440.29c-13.976 13.999-20.967 32.349-20.967 50.701z" />
<glyph unicode="&#xe903;" glyph-name="arrow-in-circle-point-to-up" d="M512 959.965c-282.776 0-512-229.155-512-512s229.293-511.931 512-511.931 512 229.224 512 512-229.224 511.931-512 511.931zM512 4.604c-244.514 0-443.431 198.848-443.431 443.5s198.915 443.431 443.431 443.431 443.431-198.986 443.431-443.431-198.848-443.5-443.431-443.5zM534.079 611.503c-6.72 6.72-15.497 9.941-24.342 9.941s-17.622-3.223-24.342-9.941l-222.366-222.368c-13.372-13.372-13.372-35.108 0-48.477 13.372-13.372 35.108-13.372 48.477 0l198.231 198.231 198.231-198.231c13.372-13.372 35.108-13.372 48.477 0 13.372 13.372 13.372 35.108 0 48.477l-222.366 222.368z" />
<glyph unicode="&#xe904;" glyph-name="arrow-point-to-right" d="M782.857 397.307l-440.304-440.29c-28.009-28.022-73.42-28.022-101.415 0-27.997 27.997-27.997 73.406 0 101.401l389.601 389.589-389.589 389.576c-27.997 28.009-27.997 73.413 0 101.41 27.997 28.009 73.406 28.009 101.415 0l440.304-440.297c13.999-14.005 20.99-32.342 20.99-50.687 0-18.354-7.005-36.704-21.001-50.703z" />
<glyph unicode="&#xe905;" glyph-name="arrows" d="M802.689 937.974l-154.687-22.019 69.456-88.577c-72.463-66.438-124.887-185.683-159.717-291.265-17.264-52.334-32.618-108.81-45.743-167.224-13.124 58.414-28.481 114.891-45.743 167.224-34.828 105.58-87.255 224.828-159.718 291.265l69.458 88.577-309.372 44.044 116.55-289.946 60.333 76.939c9.839-9.753 19.856-21.736 29.85-35.818 34.175-48.16 67.45-119.724 96.224-206.952 56.444-171.108 91.511-388.8 91.522-568.149 0-0.025 0-0.049 0-0.075v0h101.805c0 179.361 35.070 397.093 91.52 568.223 28.776 87.228 62.049 158.792 96.224 206.952 9.992 14.084 20.007 26.065 29.848 35.818l60.334-76.939 116.544 289.946-154.687-22.026z" />
<glyph unicode="&#xe906;" glyph-name="arrows-1" d="M1011.392 474.089l-428.662 298.806c-16.812 14.348-30.561 8.017-30.561-14.083v-125.005c0-22.093-18.085-40.175-40.175-40.175l-472.022-0.716c-22.009-0.122-39.967-18.146-39.972-40.165l0.005-210.912c0-22.095 18.075-40.178 40.163-40.178l471.966 0.701c22.029-0.071 40.040-18.106 40.040-40.163v-125.002c0-22.1 13.749-28.439 30.553-14.101l428.67 298.817c16.804 14.358 16.804 37.827-0.005 52.177z" />
<glyph unicode="&#xe907;" glyph-name="arrows-2" d="M872.174 599.825l-45.612-45.614 73.955-73.955h-900.517v-64.509h900.517l-73.955-73.957 45.612-45.614 151.826 151.826z" />
<glyph unicode="&#xe908;" glyph-name="arrows-3" d="M1024 480.256h-900.517l73.955 73.955-45.614 45.614-151.824-151.824 151.824-151.826 45.614 45.614-73.955 73.957h900.517z" />
<glyph unicode="&#xe909;" glyph-name="arrows-4" d="M469.729 419.425c17.521 41.52 32.374 74.092 44.565 97.711 9.143 17.521 17.721 32.284 25.721 44.284 7.992 12.001 17.713 23.715 29.137 35.142 11.438 11.43 24.574 20.011 39.439 25.719 14.849 5.714 31.417 8.572 49.712 8.572h146.275v-109.716c0-4.952 1.807-9.241 5.424-12.855 3.617-3.621 7.904-5.428 12.849-5.428 5.342 0 9.725 1.709 13.136 5.14l182.864 182.852c3.439 3.433 5.15 7.808 5.15 13.144s-1.711 9.713-5.15 13.158l-182.287 182.289c-4.561 3.807-9.151 5.702-13.714 5.702-5.342 0-9.713-1.711-13.15-5.144-3.41-3.429-5.124-7.806-5.124-13.14v-109.708h-146.275c-25.911 0-50.289-3.15-73.151-9.435s-43.152-14.28-60.862-24c-17.717-9.715-34.857-22.761-51.432-39.145-16.572-16.376-30.67-32.192-42.283-47.429-11.616-15.233-23.811-34.279-36.571-57.14-12.757-22.857-23.045-42.859-30.855-60-7.812-17.145-17.239-38.288-28.285-63.432-17.527-41.522-32.384-74.098-44.573-97.715-9.141-17.521-17.719-32.288-25.713-44.286-7.998-12.001-17.719-23.713-29.145-35.14-11.43-11.438-24.574-20.013-39.431-25.727-14.853-5.712-31.429-8.574-49.712-8.574h-127.997c-5.336 0-9.719-1.699-13.144-5.136-3.42-3.425-5.14-7.796-5.14-13.136v-109.726c0-5.33 1.725-9.713 5.154-13.15 3.431-3.427 7.816-5.138 13.144-5.138h128.002c25.911 0 50.287 3.15 73.147 9.439 22.857 6.289 43.148 14.288 60.856 24 17.719 9.719 34.859 22.769 51.432 39.153 16.568 16.37 30.67 32.192 42.287 47.423 11.612 15.241 23.805 34.283 36.569 57.138 12.757 22.865 23.049 42.863 30.855 60.002 7.804 17.145 17.229 38.282 28.277 63.432zM18.283 630.86h128.002c16.762 0 32.284-2.764 46.572-8.292s26.287-12.191 36-20.005c9.715-7.814 19.428-18.572 29.143-32.284 9.713-13.72 17.429-25.819 23.143-36.289 5.71-10.48 12.757-24.292 21.139-41.432 29.339 68.952 55.428 120.952 78.287 156-60.953 85.713-139.048 128.576-234.287 128.576h-127.999c-5.336 0-9.719-1.711-13.144-5.144-3.42-3.425-5.14-7.802-5.14-13.138v-109.716c0-5.338 1.711-9.709 5.14-13.136 3.433-3.433 7.816-5.142 13.144-5.142zM836.577 387.412c-4.575 3.807-9.151 5.698-13.726 5.698-5.328 0-9.713-1.705-13.136-5.136-3.425-3.425-5.136-7.808-5.136-13.136v-109.726h-146.289c-16.768 0-32.288 2.768-46.576 8.3-14.288 5.522-26.289 12.185-36 20.001-9.705 7.808-19.424 18.574-29.137 32.294-9.719 13.714-17.439 25.815-23.151 36.297-5.708 10.46-12.755 24.288-21.137 41.416-29.331-68.568-55.232-120.568-77.713-156 10.282-14.855 20.949-28.095 31.997-39.705 11.044-11.616 21.524-21.808 31.427-30.574 9.905-8.754 21.143-16.384 33.713-22.849 12.575-6.479 23.617-11.905 33.15-16.29 9.549-4.381 21.536-7.904 36.006-10.574 14.473-2.658 26.663-4.671 36.569-5.986 9.903-1.329 23.431-2.288 40.574-2.864 17.137-0.574 31.043-0.753 41.698-0.574 10.678 0.192 26.109 0.396 46.302 0.574 20.193 0.186 36.385 0.288 48.577 0.288v-109.718c0-4.952 1.807-9.239 5.424-12.855 3.617-3.619 7.904-5.426 12.849-5.426 5.342 0 9.725 1.711 13.136 5.136l182.864 182.85c3.425 3.439 5.136 7.808 5.136 13.15 0 5.336-1.711 9.713-5.15 13.136l-182.271 182.275z" />
<glyph unicode="&#xe90a;" glyph-name="arrows-5" d="M1024 897.459l-62.538 62.541-873.018-873.015v393.549h-88.443v-544.531h544.534v88.443h-393.552z" />
<glyph unicode="&#xe90b;" glyph-name="arrows-6" d="M935.554 480.534v-393.549l-873.015 873.015-62.538-62.538 873.015-873.018h-393.549v-88.443h544.531v544.534z" />
<glyph unicode="&#xe90c;" glyph-name="arrows-7" d="M994.662 459.844c-16.299 0-29.338-13.039-29.338-29.338v-266.866c0-72.584-59.11-131.477-131.477-131.477h-643.694c-72.584 0-131.477 59.11-131.477 131.477v271.212c0 16.299-13.039 29.338-29.338 29.338s-29.338-13.039-29.338-29.338v-271.212c0-104.964 85.406-190.153 190.153-190.153h643.694c104.964 0 190.153 85.406 190.153 190.153v266.866c0 16.081-13.039 29.338-29.338 29.338zM346.187 685.854l136.475 136.475v-595.233c0-16.299 13.039-29.338 29.338-29.338s29.338 13.039 29.338 29.338v595.233l136.475-136.475c5.65-5.65 13.256-8.693 20.645-8.693 7.606 0 14.995 2.825 20.645 8.693 11.518 11.518 11.518 29.99 0 41.508l-186.458 186.458c-5.433 5.433-13.039 8.693-20.645 8.693-7.823 0-15.212-3.042-20.645-8.693l-186.458-186.458c-11.518-11.518-11.518-29.99 0-41.508 11.301-11.301 29.99-11.301 41.29 0z" />
<glyph unicode="&#xe90d;" glyph-name="arrows-8" d="M27.141 439.58c0.007 0 0.013 0 0.020 0l67.171 0.050c13.911 0.010 25.179 11.295 25.169 25.206-0.060 83.628 26.855 163.035 77.835 229.629 72.004 94.063 181.531 148.012 300.488 148.012 83.585 0 162.84-26.855 229.209-77.66 21.995-16.84 41.744-35.651 59.195-56.269l-124.039 21.898c-6.573 1.162-13.347-0.339-18.825-4.168-5.474-3.832-9.199-9.679-10.361-16.259l-11.678-66.147c-2.418-13.7 6.727-26.764 20.427-29.183l297.666-52.551c1.458-0.259 2.919-0.383 4.38-0.383 5.132 0 10.18 1.568 14.445 4.551 5.474 3.832 9.199 9.679 10.361 16.259l52.551 297.67c2.418 13.7-6.727 26.764-20.427 29.183l-66.147 11.678c-13.726 2.428-26.764-6.727-29.183-20.427l-22.116-125.275c-24.81 30.771-53.3 58.651-84.797 82.762-87.037 66.627-190.975 101.845-300.582 101.845-155.911 0-299.487-70.741-393.909-194.081-66.835-87.306-102.121-191.448-102.047-301.169 0.003-6.68 2.663-13.085 7.389-17.807 4.726-4.715 11.127-7.362 17.804-7.362zM1014.66 449.058c-4.722 4.715-11.127 7.365-17.8 7.365-0.007 0-0.013 0-0.020 0l-67.171-0.050c-13.911-0.010-25.179-11.295-25.169-25.206 0.060-83.628-26.855-163.035-77.835-229.629-72.008-94.063-181.534-148.012-300.491-148.012-83.581 0-162.837 26.855-229.205 77.66-21.995 16.84-41.744 35.651-59.195 56.269l124.039-21.898c6.586-1.165 13.35 0.336 18.821 4.168 5.474 3.832 9.199 9.679 10.361 16.259l11.674 66.147c2.418 13.7-6.727 26.764-20.427 29.183l-297.666 52.551c-6.569 1.159-13.347-0.339-18.821-4.168-5.474-3.832-9.199-9.679-10.361-16.259l-52.548-297.67c-2.418-13.7 6.727-26.764 20.427-29.183l66.147-11.678c1.481-0.262 2.956-0.39 4.41-0.39 11.99 0 22.617 8.598 24.776 20.816l22.116 125.275c24.81-30.771 53.3-58.651 84.797-82.762 87.031-66.627 190.968-101.845 300.578-101.845 155.915 0 299.487 70.741 393.906 194.081 66.835 87.306 102.121 191.448 102.047 301.169-0.003 6.677-2.663 13.082-7.389 17.804z" />
<glyph unicode="&#xe90e;" glyph-name="audition" d="M294.305 429.037h129.688l-65.972 215.419zM793.107 960h-562.214c-127.317 0-230.893-103.576-230.893-230.893v-562.214c0-127.317 103.576-230.893 230.893-230.893h562.214c127.317 0 230.893 103.576 230.893 230.893v562.214c0 127.317-103.576 230.893-230.893 230.893zM490.003 201.481l-52.338 171.425h-157.772l-50.062-171.425h-59.164l156.236 530.963h62.957l161.583-530.963h-61.44zM850.299 201.481h-52.338v28.065c-21.751-24.273-51.086-36.428-88.007-36.428-95.080 0-142.601 46.27-142.601 138.809v249.572h54.613v-249.553c0-58.14 29.317-87.23 87.988-87.23 57.154 0 85.732 29.317 85.732 87.988v248.794h54.613v-380.018z" />
<glyph unicode="&#xe90f;" glyph-name="cart" d="M939.108 687.795h-854.208c-11.791 0-21.354-9.559-21.354-21.354v-103.116c0-11.793 9.563-21.357 21.354-21.357h22.122l65.737-352.327c-39.556-23.97-66.048-67.432-66.048-116.97 0-75.363 61.311-136.672 136.672-136.672s136.676 61.309 136.676 136.672c0 3.872-0.208 7.694-0.519 11.484h264.927c-0.316-3.79-0.519-7.614-0.519-11.484 0-75.363 61.311-136.672 136.672-136.672s136.672 61.309 136.672 136.672c0 49.537-26.497 92.999-66.053 116.97l65.741 352.327h22.122c11.791 0 21.354 9.563 21.354 21.357v103.116c0.002 11.796-9.561 21.354-21.347 21.354zM243.382 21.419c-28.256 0-51.252 22.99-51.252 51.252 0 28.26 22.997 51.252 51.252 51.252 28.26 0 51.252-22.994 51.252-51.252 0.002-28.263-22.99-51.252-51.252-51.252zM780.618 21.419c-28.26 0-51.252 22.99-51.252 51.252 0 28.26 22.992 51.252 51.252 51.252 28.256 0 51.252-22.994 51.252-51.252 0-28.263-22.994-51.252-51.252-51.252zM827.394 839.76c-0.466 0.877-1.157 1.618-1.995 2.15l-51.262 32.268c-2.341 1.476-5.387 1.053-7.247-0.995l-11.46-12.653-11.361 38.442c-0.35 1.164-1.058 2.191-2.024 2.923l-64.78 49.117c-1.628 1.239-3.797 1.505-5.689 0.696l-59.618-25.586-67.77-10.989-58.639 28.63c-0.242 0.116-0.486 0.217-0.742 0.302l-48.407 15.661c-1.747 0.565-3.667 0.251-5.143-0.845l-42.542-31.56-54.96 1.833c-1.222 0.034-2.44-0.316-3.45-1.022l-59.792-41.761c-1.529-1.065-2.44-2.809-2.44-4.669v-18.675l-39.218-32.461c-0.152-0.13-0.302-0.263-0.444-0.408l-80.199-83.066 728.53-0.343-49.349 93.014z" />
<glyph unicode="&#xe910;" glyph-name="clock" d="M544 766.788v65.211h128.001v64.001c0 35.345-28.656 63.999-64.003 63.999h-191.998c-35.345 0-63.999-28.654-63.999-63.999v-63.999h128.001v-65.213c-214.798-16.337-384-195.802-384-414.789 0-229.749 186.25-415.999 416.001-415.999s416.001 186.25 416.001 415.999c-0.002 218.986-169.204 398.448-384.002 414.789zM738.273 125.725c-60.44-60.44-140.796-93.725-226.272-93.725s-165.834 33.285-226.276 93.725c-60.44 60.44-93.725 140.801-93.725 226.274 0 85.475 33.287 165.834 93.725 226.274 58.040 58.040 134.448 91.018 216.115 93.548l-21.679-314.022c-1.86-26.291 12.465-37.801 31.837-37.801s33.7 11.51 31.836 37.801l-21.675 314.024c81.665-2.532 158.076-35.512 216.115-93.55 60.444-60.44 93.727-140.799 93.727-226.274-0.002-85.473-33.287-165.834-93.729-226.274z" />
<glyph unicode="&#xe911;" glyph-name="close-button" d="M512 960c-282.761 0-512-229.239-512-512 0-282.829 229.239-512 512-512 282.829 0 512 229.171 512 512 0 282.761-229.171 512-512 512zM512 4.266c-244.668 0-443.734 199.066-443.734 443.734s199.066 443.734 443.734 443.734 443.734-199.066 443.734-443.734-199.066-443.734-443.734-443.734zM700.963 685.226l-187.597-187.665-168.345 187.665c-13.312 13.312-34.954 13.312-48.264 0-13.312-13.312-13.312-34.954 0-48.264l168.345-187.665-190.258-190.258c-13.312-13.312-13.312-35.021 0-48.264 13.312-13.312 34.954-13.312 48.264 0l187.665 187.597 168.345-187.597c13.243-13.312 34.954-13.312 48.196 0 13.312 13.245 13.312 34.954 0 48.264l-168.413 187.597 190.258 190.328c13.312 13.312 13.312 34.954 0 48.264s-34.884 13.31-48.196-0.002z" />
<glyph unicode="&#xe912;" glyph-name="cloud" d="M829.242 555.443c-13.984 145.989-135.556 260.552-285.257 260.552-115.812 0-214.951-68.738-260.68-167.365-13.76 4.352-28.097 7.36-43.297 7.36-79.522 0-144.005-64.514-144.005-144.005 0-15.808 3.168-30.753 7.872-44.929-61.858-36.065-103.875-102.243-103.875-179.014 0-114.884 93.123-208.007 208.007-208.007v-0.064l575.986 0.064c132.58 0 240.008 107.427 240.008 240.008 0 117.028-83.875 214.183-194.758 235.399zM783.992 144.071v-0.096h-575.986c-79.394 0.096-144.005 64.674-144.005 144.069 0 51.202 26.977 97.443 72.13 123.748 43.873 25.185 46.881 30.177 28.481 75.426-3.104 9.312-4.608 17.409-4.608 24.737 0 44.129 35.873 80.003 80.003 80.003 0 0 20.993 1.504 43.297-7.36 36.705-14.624 40.705-0.64 58.050 37.089 36.705 79.138 116.228 130.308 202.63 130.308 115.204 0 210.439-87.139 221.575-202.694 3.936-45.825 3.936-45.825 51.682-56.738 82.755-15.808 142.756-88.387 142.756-172.517 0-97.059-78.946-175.973-176.006-175.973z" />
<glyph unicode="&#xe913;" glyph-name="cog-wheel-silhouette" d="M1018.678 536.328c-3.57 4.675-8.229 7.456-13.999 8.339l-122.006 18.662c-6.664 21.336-15.776 43.108-27.33 65.336 7.991 11.11 19.986 26.774 35.984 47.003 15.998 20.224 27.327 34.996 34.001 44.334 3.556 4.89 5.322 9.996 5.322 15.334 0 6.218-1.541 11.103-4.665 14.664-15.991 22.669-52.661 60.444-109.996 113.335-5.312 4.444-10.884 6.664-16.654 6.664-6.671 0-12.002-1.996-16.005-5.994l-94.662-71.334c-18.228 9.338-38.228 17.56-59.995 24.67l-18.667 122.659c-0.446 5.777-3.005 10.557-7.671 14.335-4.672 3.783-10.106 5.665-16.339 5.665h-147.997c-12.89 0-20.892-6.218-24-18.664-5.779-22.214-12.226-63.547-19.334-123.993-20.892-6.678-41.114-15.122-60.668-25.343l-92 71.334c-5.777 4.444-11.554 6.664-17.331 6.664-9.777 0-30.774-15.888-62.998-47.666-32.224-31.785-54.101-55.671-65.667-71.664-4.002-5.777-5.996-10.891-5.996-15.334 0-5.338 2.218-10.671 6.662-15.998 29.775-36.007 53.557-66.664 71.337-92.009-11.113-20.441-19.778-40.89-25.994-61.331l-124.004-18.662c-4.887-0.892-9.107-3.785-12.665-8.675-3.566-4.885-5.34-10.001-5.34-15.325v-148.004c0-5.786 1.775-10.996 5.333-15.664 3.559-4.665 8.222-7.461 14.001-8.341l122.008-18.003c6.218-21.775 15.327-43.766 27.33-65.982-7.995-11.117-19.995-26.779-35.995-47.003-15.998-20.233-27.341-35.001-34.001-44.334-3.561-4.908-5.336-10.006-5.336-15.341 0-5.77 1.555-10.877 4.663-15.32 17.333-24.014 53.999-61.347 110.003-112.011 4.892-4.89 10.449-7.327 16.665-7.327 6.671 0 12.226 1.989 16.668 5.985l94.008 71.344c18.232-9.333 38.228-17.557 60.005-24.677l18.664-122.659c0.451-5.77 3.005-10.55 7.666-14.337 4.663-3.787 10.113-5.658 16.334-5.658h147.997c12.913 0 20.904 6.216 24.021 18.667 5.77 22.216 12.21 63.545 19.32 123.988 20.89 6.674 41.114 15.122 60.668 25.347l92.007-72.014c6.218-3.998 12.005-5.985 17.326-5.985 9.775 0 30.662 15.766 62.657 47.332 32.012 31.549 54.010 55.552 65.999 72.007 3.995 4.441 5.999 9.55 5.999 15.32 0 5.786-2.211 11.353-6.671 16.67-31.986 39.122-55.769 69.777-71.327 92.007 8.887 16.446 17.557 36.663 26.003 60.665l123.332 18.653c5.322 0.894 9.782 3.787 13.329 8.677 3.556 4.899 5.322 10.013 5.322 15.344v147.988c0.012 5.777-1.754 10.991-5.319 15.661zM632.68 327.336c-33.324-33.338-73.548-50.008-120.668-50.008-47.115 0-87.334 16.67-120.672 50.008-33.326 33.324-49.996 73.55-49.996 120.661 0 47.115 16.661 87.334 49.996 120.672 33.338 33.326 73.564 49.996 120.672 49.996 47.12 0 87.346-16.67 120.668-49.996 33.331-33.338 50.001-73.557 50.001-120.672 0-47.11-16.668-87.339-50.001-120.661z" />
<glyph unicode="&#xe914;" glyph-name="commerce" d="M767.947 191.999c-70.689 0-128-57.311-128-128s57.311-128 128-128 128 57.311 128 128-57.314 128-128 128zM447.947 191.999c-70.687 0-127.999-57.311-127.999-128s57.312-128 127.999-128c70.689 0 128 57.311 128 128s-57.311 128-128 128zM1012.012 741.438c-12.189 16.721-31.439 26.563-52.061 26.563h-657.878l-49.439 148.281c-8.687 26.125-33.124 43.718-60.686 43.718h-127.939c-35.376 0-63.998-28.594-63.998-64s28.623-64 63.998-64h81.814l177.373-532.249c8.752-26.125 33.189-43.754 60.751-43.754h448.004c27.687 0 51.998 17.629 60.751 43.754l128 384.031c6.496 19.498 3.247 40.937-8.69 57.655z" />
<glyph unicode="&#xe915;" glyph-name="commerce-1" d="M927.008 671.26c3.129 0 3.129 0 6.244 0l-46.918 181.44c-12.515 53.203-68.847 84.491-118.907 68.847l-694.558-184.597c-53.189-12.515-84.477-68.833-68.833-118.893l59.447-225.271v134.537c0 81.32 65.704 147.024 147.052 147.024h716.473v-3.087zM927.008 621.199h-719.616c-53.189 0-96.978-43.817-96.978-96.992v-456.772c0-53.217 43.803-96.992 96.978-96.992h719.616c53.189 0 96.978 43.817 96.978 96.992v456.744c0.028 53.217-43.789 97.020-96.978 97.020zM958.31 67.394c0-18.787-15.63-31.274-31.274-31.274h-719.616c-18.773 0-31.274 15.63-31.274 31.288v115.736h785.306v-115.736l-3.143-0.014zM958.31 408.43h-782.191v115.75c0 18.787 15.644 31.288 31.274 31.288h719.616c18.787 0 31.274-15.644 31.274-31.288l0.028-115.75z" />
<glyph unicode="&#xe916;" glyph-name="computer-settings-interface-symbol-of-a-monitor-screen-with-gears" d="M278.354 527.971c0.415-6.040 1.328-11.934 2.844-17.642-6.995-5.936-20.984-17.788-20.984-17.788v-25.675l36.385-42.964c0 0 21.171-2.511 22.292-1.889 1.121 0.602 3.404 1.889 3.404 1.889s13.304 11.25 19.946 16.874c5.625-2.511 11.457-4.629 17.539-6.247 0.685-7.576 2.076-22.665 2.076-22.665l18.161-18.161 56.019 5.106 18.161 18.161c0 0-1.764 19.469-2.636 29.182 4.587 2.636 8.987 5.5 13.118 8.676 7.306-4.213 21.876-12.64 21.876-12.64l24.844 6.517 28.186 48.734-6.497 24.844c0 0-18.784 10.855-28.145 16.293-0.249 5.417-0.83 10.751-1.951 15.94 7.431 6.372 22.333 19.116 22.333 19.116v25.675l-36.696 42.757h-25.695c0 0-12.184-10.44-18.265-15.65-6.6 3.217-13.574 5.832-20.88 7.804-0.581 7.244-1.764 21.752-1.764 21.752l-18.161 18.161-56.102-4.566-18.161-18.161c0 0 1.536-19.033 2.283-28.56-5.5-3.134-10.689-6.663-15.504-10.585-7.887 3.611-23.703 10.834-23.703 10.834l-24.844-6.517-23.495-51.225-0.83-3.466 7.347-21.378c0 0.021 18.327-8.365 27.501-12.536zM388.525 590.57c31.299 0 56.642-25.363 56.642-56.642s-25.363-56.642-56.642-56.642c-31.279 0-56.642 25.363-56.642 56.642s25.363 56.642 56.642 56.642zM567.77 453.438c0.166-2.677 0.56-5.313 1.266-7.846-3.113-2.636-9.34-7.908-9.34-7.908v-11.416l16.189-19.116c0 0 9.423-1.121 9.942-0.851 0.477 0.291 1.494 0.851 1.494 0.851s5.915 5.002 8.883 7.514c2.491-1.142 5.085-2.076 7.825-2.802 0.311-3.362 0.892-10.087 0.892-10.087l8.115-8.074 24.928 2.262 8.074 8.095c0 0-0.768 8.655-1.183 12.972 2.055 1.204 3.985 2.449 5.832 3.881 3.217-1.868 9.734-5.625 9.734-5.625l11.063 2.927 12.536 21.69-2.927 11.021c0 0-8.344 4.836-12.536 7.264-0.104 2.408-0.394 4.753-0.851 7.098 3.3 2.844 9.921 8.51 9.921 8.51v11.416l-16.293 19.033h-11.436c0 0-5.438-4.649-8.136-6.953-2.947 1.432-6.040 2.594-9.299 3.466-0.249 3.217-0.768 9.672-0.768 9.672l-8.095 8.074-24.948-2.034-8.095-8.074c0 0 0.664-8.468 1.017-12.723-2.428-1.391-4.753-2.968-6.891-4.712-3.508 1.619-10.544 4.815-10.544 4.815l-11.063-2.906-10.44-22.79-0.415-1.536 3.279-9.506c0.042-0.021 8.136-3.736 12.267-5.604zM616.774 481.292c13.927 0 25.197-11.27 25.197-25.197 0-13.906-11.27-25.197-25.197-25.197s-25.197 11.27-25.197 25.197c0 13.927 11.27 25.197 25.197 25.197zM682.466 573.032c0.249-3.321 0.726-6.58 1.557-9.734-3.881-3.279-11.582-9.817-11.582-9.817v-14.155l20.071-23.682c0 0 11.665-1.37 12.287-1.038 0.602 0.353 1.889 1.038 1.889 1.038s7.347 6.206 11 9.299c3.072-1.37 6.31-2.553 9.672-3.445 0.394-4.172 1.121-12.495 1.121-12.495l10.025-10.004 30.864 2.823 9.983 10.004c0 0-0.955 10.731-1.432 16.086 2.553 1.453 4.961 3.030 7.244 4.774 4.027-2.325 12.059-6.974 12.059-6.974l13.699 3.591 15.567 26.879-3.611 13.678c0 0-10.378 5.998-15.525 8.987-0.166 2.989-0.457 5.936-1.059 8.8 4.068 3.508 12.287 10.544 12.287 10.544v14.155l-20.237 23.578h-14.197c0 0-6.704-5.749-10.046-8.634-3.632 1.764-7.451 3.217-11.519 4.317-0.332 3.985-0.976 11.997-0.976 11.997l-10.004 10.004-30.884-2.511-10.025-10.004c0 0 0.83-10.502 1.266-15.774-3.030-1.723-5.853-3.674-8.531-5.832-4.338 1.993-13.076 5.978-13.076 5.978l-13.678-3.591-12.931-28.248-0.477-1.91 4.047-11.768c-0.021 0.021 10.087-4.608 15.152-6.912zM743.239 607.549c17.227 0 31.216-13.969 31.216-31.237 0-17.248-13.989-31.216-31.216-31.216-17.269 0-31.258 13.969-31.258 31.216 0 17.269 13.989 31.237 31.258 31.237zM0 870.73v-675.222h367.167v-139.021h277.067v139.021h379.766v675.222h-1024zM920.222 299.286h-816.444v467.666h816.444v-467.666zM217.996 53.85h575.429v-28.581h-575.429v28.581z" />
<glyph unicode="&#xe917;" glyph-name="court" d="M1024 132.604v-51.084c0-18.525-15.014-33.543-33.543-33.543h-400.185c-18.529 0-33.543 15.018-33.543 33.543v51.084c0 18.525 15.014 33.543 33.543 33.543h400.185c18.529 0 33.543-15.018 33.543-33.543zM967.106 392.318l-13.467 32.734c-7.733 18.793-25.672 31.030-45.914 31.468-0.42 2.107-1.033 4.209-1.883 6.27l-10.64 25.869c6.637 3.641 11.897 9.428 14.84 16.485 3.426 8.211 3.448 17.447 0.067 25.676l-53.45 129.933c-6.557 15.935-23.972 24.097-40.171 19.495l-10.644 25.873c-0.841 2.044-1.878 3.985-3.086 5.801 13.565 14.093 18.368 35.408 10.461 54.64l-13.467 32.734c-12.178 29.603-40.73 48.732-72.744 48.732-10.287 0-20.345-1.995-29.903-5.926l-172.001-70.754c-40.1-16.494-59.305-62.538-42.81-102.642l13.471-32.747c7.742-18.802 25.712-31.039 45.968-31.455 0.42-2.102 1.033-4.195 1.878-6.248l10.631-25.842c-6.709-3.636-12.017-9.464-14.983-16.57-2.867-6.879-3.314-14.464-1.409-21.584l-8.292-3.412c-8.229-3.381-14.777-9.898-18.198-18.109-2.321-5.568-3.041-11.606-2.232-17.487l-126.615-52.086c-2.666 2.303-5.684 4.213-8.999 5.595-8.211 3.426-17.443 3.448-25.672 0.063l-327.051-134.544c-17.129-7.049-25.305-26.647-18.261-43.781l26.079-63.397c3.386-8.229 9.902-14.772 18.113-18.198 4.133-1.722 8.52-2.585 12.912-2.585 4.338 0 8.672 0.841 12.764 2.522l327.060 134.54c12.093 4.973 19.692 16.208 20.654 28.413l126.61 52.082c3.56-4.745 8.319-8.529 13.891-10.855 4.133-1.722 8.52-2.585 12.912-2.585 4.338 0 8.672 0.841 12.764 2.522l8.31 3.421c6.056-10.622 17.281-16.942 29.098-16.942 3.086 0 6.212 0.443 9.289 1.337l10.635-25.851c0.841-2.039 1.869-3.972 3.073-5.778-13.596-14.093-18.413-35.431-10.501-54.676l13.471-32.738c12.183-29.603 40.73-48.732 72.744-48.732 10.282 0 20.345 1.995 29.903 5.926l172.001 70.754c40.086 16.485 59.291 62.534 42.792 102.638z" />
<glyph unicode="&#xe918;" glyph-name="danger-sign" d="M512 960c-282.319 0-512-229.681-512-512s229.681-512 512-512c282.319 0 512 229.681 512 512s-229.681 512-512 512zM512 153.494c-28.714 0-51.992 23.279-51.992 51.992s23.279 51.992 51.992 51.992c28.714 0 51.992-23.279 51.992-51.992s-23.279-51.992-51.992-51.992zM563.992 420.389c0-28.714-23.279-51.992-51.992-51.992s-51.992 23.279-51.992 51.992v273.826c0 28.714 23.279 51.992 51.992 51.992s51.992-23.279 51.992-51.992v-273.826z" />
<glyph unicode="&#xe919;" glyph-name="days" d="M763.262 743.884c39.243 0 71.031 31.577 71.031 70.89v74.195c0 39.348-31.753 71.031-71.031 71.031s-70.995-31.647-70.995-71.031v-74.23c0.035-39.278 31.753-70.855 70.995-70.855zM1015.596 837.138h-142.975v-36.113c0-59.602-48.42-108.163-108.128-108.163-59.778 0-108.093 48.561-108.093 108.163v36.113h-288.518v-36.113c0-59.602-48.491-108.163-108.163-108.163s-108.128 48.526-108.128 108.163v36.113l-144.276 1.793v-902.932l1009.372 0.211-1.090 900.927zM944.565 7.91h-865.096v576.824h865.166v-576.824h-0.070zM258.593 743.884c39.243 0 71.066 31.577 71.066 70.89v74.195c0 39.383-31.823 71.031-71.066 71.031s-70.96-31.647-70.96-71.031v-74.23c0-39.278 31.682-70.855 70.96-70.855zM368.093 507.339h113.614v-100.287h-113.614v100.287zM551.788 507.339h113.719v-100.287h-113.719v100.287zM722.155 507.339h113.614v-100.287h-113.614v100.287zM368.093 340.804h113.614v-100.216h-113.614v100.216zM551.788 340.804h113.719v-100.216h-113.719v100.216zM722.155 340.804h113.614v-100.216h-113.614v100.216zM368.093 170.963h113.614v-100.216h-113.614v100.216zM187.633 340.804h113.543v-100.216h-113.543v100.216zM187.633 170.963h113.543v-100.216h-113.543v100.216zM551.788 170.963h113.719v-100.216h-113.719v100.216zM722.155 170.963h113.614v-100.216h-113.614v100.216z" />
<glyph unicode="&#xe91a;" glyph-name="dice" d="M0 396.799h85.337v-443.747h-85.337v443.747zM1014.762 345.852c-29.937 41.677-60.264 42.327-136.178 2.39l-147.152-89.979c-14.37-7.646-73.456-32.137-82.878-32.137h-290.143c-51.202 0-51.202-25.687-51.202-34.135 0-9.42-7.646-17.066-17.066-17.066s-17.066 7.646-17.066 17.066c0 42.753 31.899 68.268 85.337 68.268h266.914c-0.018 11.862-4.71 24.953-14.234 39.169-10.906 16.282-25.191 29.681-41.593 40.023l113.531 113.547c6.672 6.674 6.672 17.461 0 24.133l-193.082 193.082c-6.674 6.674-17.461 6.674-24.133 0l-193.098-193.082c-6.656-6.674-6.656-17.461 0-24.133l70.676-70.676c-6.742 3.636-13.244 7.698-19.321 12.27-81.734 61.63-191.836-47.855-197.928-52.534l-6.674-5.12v-332.69h221.873c34.817 0 69.942 2.662 104.383 7.884l221.242 33.639c8.038 0.102 16.214 1.058 23.467 2.696 20.379 2.868 39.869 12.596 56.356 28.161l259.114 201.784c20.121 16.68 24.031 46.293 8.856 67.438zM562.362 477.134c6.656 6.674 17.461 6.674 24.133 0 6.656-6.656 6.656-17.477 0-24.133-6.672-6.674-17.477-6.674-24.133 0-6.672 6.656-6.672 17.477 0 24.133zM465.814 477.134c6.656 6.674 17.477 6.674 24.133 0 6.672-6.656 6.672-17.477 0-24.133-6.656-6.674-17.477-6.674-24.133 0-6.672 6.656-6.672 17.477 0 24.133zM369.265 477.134c6.674 6.674 17.477 6.674 24.133 0 6.674-6.656 6.674-17.477 0-24.133-6.656-6.674-17.461-6.674-24.133 0-6.672 6.656-6.672 17.477 0 24.133zM648.553 635.739h273.074c9.42 0 17.066 7.646 17.066 17.066v273.076c0 9.42-7.646 17.066-17.066 17.066h-273.074c-9.42 0-17.066-7.646-17.066-17.066v-273.074c-0.002-9.422 7.644-17.069 17.066-17.069zM853.359 874.68c9.42 0 17.066-7.646 17.066-17.066s-7.646-17.066-17.066-17.066-17.066 7.646-17.066 17.066c-0.002 9.42 7.644 17.066 17.066 17.066zM853.359 738.142c9.42 0 17.066-7.646 17.066-17.066s-7.646-17.066-17.066-17.066-17.066 7.646-17.066 17.066 7.644 17.066 17.066 17.066zM785.089 806.412c9.42 0 17.066-7.646 17.066-17.066s-7.646-17.066-17.066-17.066c-9.42 0-17.066 7.646-17.066 17.066s7.646 17.066 17.066 17.066zM716.821 874.68c9.42 0 17.066-7.646 17.066-17.066s-7.646-17.066-17.066-17.066-17.066 7.646-17.066 17.066c0 9.42 7.646 17.066 17.066 17.066zM716.821 738.142c9.42 0 17.066-7.646 17.066-17.066s-7.646-17.066-17.066-17.066-17.066 7.646-17.066 17.066 7.646 17.066 17.066 17.066z" />
<glyph unicode="&#xe91b;" glyph-name="download" d="M994.662 459.844c-16.299 0-29.338-13.039-29.338-29.338v-266.866c0-72.584-59.11-131.477-131.477-131.477h-643.694c-72.584 0-131.477 59.11-131.477 131.477v271.212c0 16.299-13.039 29.338-29.338 29.338s-29.338-13.039-29.338-29.338v-271.212c0-104.964 85.406-190.153 190.153-190.153h643.694c104.964 0 190.153 85.406 190.153 190.153v266.866c0 16.081-13.039 29.338-29.338 29.338zM491.355 206.452c5.65-5.65 13.256-8.693 20.645-8.693s14.995 2.825 20.645 8.693l186.458 186.458c11.518 11.518 11.518 29.99 0 41.508s-29.99 11.518-41.508 0l-136.258-136.475v595.233c0 16.299-13.039 29.338-29.338 29.338s-29.338-13.039-29.338-29.338v-595.233l-136.475 136.475c-11.518 11.518-29.99 11.518-41.508 0s-11.518-29.99 0-41.508l186.676-186.458z" />
<glyph unicode="&#xe91c;" glyph-name="draw" d="M975.219 911.237c-65.054 65.017-170.864 65.017-235.918 0l-668.371-668.371c-0.315-0.315-0.5-0.704-0.778-1.038-0.389-0.445-0.723-0.927-1.075-1.409-0.982-1.372-1.742-2.836-2.317-4.43-0.167-0.482-0.408-0.908-0.537-1.39-0.056-0.185-0.167-0.371-0.222-0.556l-65.517-275.229c-0.297-1.242-0.371-2.502-0.408-3.744 0-0.241-0.074-0.463-0.074-0.704 0.019-2.113 0.482-4.17 1.205-6.153 0.167-0.463 0.352-0.871 0.556-1.316 0.908-1.983 2.039-3.892 3.633-5.486 1.761-1.761 3.837-3.114 6.079-4.040s4.633-1.39 7.024-1.39c1.427 0 2.873 0.167 4.281 0.5l275.229 65.517c0.5 0.111 0.945 0.389 1.427 0.556 0.63 0.204 1.223 0.445 1.835 0.723 1.334 0.612 2.576 1.372 3.725 2.28 0.445 0.352 0.908 0.612 1.334 1.001 0.148 0.148 0.334 0.222 0.482 0.371l668.389 668.389c65.054 65.054 65.054 170.883 0.019 235.918zM949.012 885.030c46.112-46.131 50.042-118.562 12.047-169.345l-181.392 181.392c50.802 37.995 123.232 34.065 169.345-12.047zM857.269 609.801l-183.486 183.486 26.207 26.207 183.486-183.486-26.207-26.207zM91.947 27.965c-7.247 7.247-18.96 7.247-26.207 0l-14.030-14.030 47.336 198.832 81.957 9.1-10.546-94.931c-0.074-0.704 0.185-1.353 0.185-2.039 0-0.704-0.259-1.334-0.185-2.039 0.074-0.612 0.389-1.112 0.519-1.705 0.222-1.075 0.537-2.057 0.927-3.058 0.482-1.205 1.056-2.298 1.761-3.355 0.575-0.853 1.149-1.612 1.853-2.354 0.89-0.945 1.853-1.742 2.91-2.484 0.834-0.575 1.631-1.112 2.558-1.557 1.223-0.575 2.502-0.908 3.837-1.223 0.704-0.167 1.279-0.556 2.002-0.649 0.667-0.074 1.334-0.111 2.020-0.111 0 0 0.019 0 0.019 0s0.019 0 0.019 0h0.019c0 0 0.019 0 0.019 0 0.667 0 1.353 0.037 2.020 0.111l94.931 10.546-9.1-81.957-198.851-47.336 14.030 14.030c7.228 7.228 7.228 18.96 0 26.207zM324.548 129.513l414.752 414.771c7.247 7.247 7.247 18.96 0 26.207s-18.96 7.247-26.207 0l-414.752-414.771-88.462-9.823 9.823 88.462 414.79 414.752c7.247 7.247 7.247 18.96 0 26.207s-18.96 7.247-26.207 0l-414.79-414.752-58.994-6.561 513.075 513.075 183.486-183.486-513.075-513.075 6.561 58.994zM909.683 662.215l-183.486 183.486 26.226 26.226 183.486-183.486-26.226-26.226z" />
<glyph unicode="&#xe91d;" glyph-name="envelope" d="M898.993 837.641h-773.774c-69.072 0-125.219-56.147-125.219-125.219v-528.844c0-69.072 56.147-125.219 125.219-125.219h773.562c69.072 0 125.219 56.147 125.219 125.219v528.632c0.212 69.072-55.935 125.431-125.007 125.431zM967.005 183.578c0-37.502-30.51-68.012-68.012-68.012h-773.774c-37.502 0-68.012 30.51-68.012 68.012v528.632c0 37.502 30.51 68.012 68.012 68.012h773.562c37.502 0 68.012-30.51 68.012-68.012v-528.632h0.212zM645.8 454.568l250.438 224.589c11.653 10.594 12.713 28.603 2.119 40.468-10.594 11.653-28.603 12.713-40.468 2.119l-345.359-309.976-67.377 60.173c-0.212 0.212-0.424 0.424-0.424 0.636-1.483 1.483-2.966 2.754-4.661 4.026l-274.168 245.353c-11.865 10.594-29.875 9.534-40.468-2.331s-9.534-29.875 2.331-40.468l253.405-226.496-252.345-236.242c-11.441-10.806-12.077-28.815-1.271-40.468 5.721-5.933 13.348-9.111 20.976-9.111 6.992 0 13.984 2.543 19.493 7.628l256.159 239.633 69.496-62.080c5.509-4.873 12.289-7.204 19.069-7.204s13.772 2.543 19.069 7.416l71.402 63.987 254.676-241.963c5.509-5.297 12.713-7.839 19.705-7.839 7.628 0 15.043 2.966 20.764 8.899 10.806 11.441 10.382 29.663-1.059 40.468l-251.498 238.785z" />
<glyph unicode="&#xe91e;" glyph-name="euro" d="M944.726 47.169c-11.482 28.068-23.178 56.137-35.936 83.779-11.27 24.666-25.729 31.896-52.734 25.729-34.235-7.868-67.832-18.287-102.066-25.304-66.131-13.821-132.474-15.097-197.754 5.529-81.866 25.729-125.457 85.055-152.249 161.605h221.994c17.436 0 31.47 14.034 31.47 31.47v69.958c0 17.436-14.034 31.47-31.47 31.47h-243.258c0 19.563-0.213 38.275 0 56.987h243.258c17.436 0 31.47 14.034 31.47 31.47v69.958c0 17.436-14.034 31.47-31.47 31.47h-212.638c0 0.851 0 1.701 0.425 2.126 25.517 58.050 62.728 104.618 123.755 128.859 71.021 28.068 143.531 27.43 216.678 12.333 34.66-7.017 68.682-17.649 103.342-25.517 25.304-5.741 39.976 1.701 50.821 25.304 12.546 27.218 24.028 54.861 35.511 82.716 10.845 26.155 4.465 44.654-20.201 59.113-6.167 3.615-12.546 6.592-19.137 9.143-102.492 39.976-208.173 54.861-317.256 37.424-76.762-12.333-148.422-38.7-210.299-86.756-78.038-60.389-128.646-140.129-157.99-233.902l-3.615-10.845h-109.296c-17.436 0-31.47-14.034-31.47-31.47v-69.958c0-17.436 14.034-31.47 31.47-31.47h86.119c0-19.137 0-37.637 0-56.987h-86.119c-17.436 0-31.47-14.034-31.47-31.47v-69.958c0-17.436 14.034-31.47 31.47-31.47h103.767c7.868-25.517 14.459-51.458 24.453-75.912 52.522-126.732 140.554-216.891 273.028-259.844 109.509-35.511 219.868-34.447 330.227-4.040 28.706 7.868 57.2 18.074 84.417 30.62 26.367 12.12 33.172 32.534 22.752 57.838z" />
<glyph unicode="&#xe91f;" glyph-name="exchange-arrows" d="M18.283 557.712h786.303v-109.717c0-4.954 1.801-9.233 5.418-12.857 3.625-3.623 7.912-5.43 12.863-5.43 5.336 0 9.719 1.711 13.136 5.142l182.865 182.859c3.417 3.429 5.13 7.812 5.13 13.14 0 5.338-1.713 9.723-5.144 13.144l-182.274 182.29c-4.575 3.815-9.151 5.716-13.726 5.716-5.328 0-9.713-1.713-13.136-5.14-3.425-3.433-5.136-7.808-5.136-13.144v-109.717h-786.299c-4.952 0-9.237-1.807-12.855-5.428s-5.428-7.904-5.428-12.855v-109.717c0-4.952 1.807-9.237 5.428-12.855s7.904-5.43 12.855-5.43zM1005.721 338.268h-786.295v109.721c0 4.952-1.811 9.237-5.428 12.855-3.621 3.621-7.908 5.428-12.857 5.428-5.338 0-9.715-1.713-13.144-5.14l-182.857-182.849c-3.421-3.439-5.14-7.81-5.14-13.154 0-4.946 1.711-9.143 5.14-12.559l182.288-182.865c4.573-3.807 9.145-5.706 13.718-5.706 4.95 0 9.237 1.807 12.855 5.418 3.617 3.629 5.428 7.904 5.428 12.863v109.713h786.291c4.96 0 9.233 1.799 12.863 5.424 3.617 3.625 5.418 7.904 5.418 12.863v109.713c0 4.954-1.807 9.233-5.418 12.849-3.631 3.617-7.906 5.424-12.863 5.424z" />
<glyph unicode="&#xe920;" glyph-name="favorite" d="M536.206 920.156l130.254-308.288 333.466-28.647c23.128-1.997 32.537-30.855 14.981-46.046l-252.938-219.139 75.797-326.002c5.256-22.655-19.291-40.474-39.16-28.437l-286.579 172.831-286.579-172.831c-19.922-11.985-44.417 5.835-39.16 28.437l75.797 326.002-252.991 219.192c-17.556 15.191-8.2 44.049 14.981 46.046l333.466 28.647 130.254 308.236c9.041 21.446 39.37 21.446 48.411 0z" />
<glyph unicode="&#xe921;" glyph-name="file" d="M874.613 844.084h-29.942v-735.6c0-48.868-39.779-88.646-88.647-88.646h-544.616v-27.268c0-31.226 25.343-56.568 56.568-56.568h606.53c31.225 0 56.567 25.342 56.567 56.568v794.946c0.001 31.225-25.235 56.568-56.46 56.568zM452.652 51.918h303.265c31.225 0 56.568 25.342 56.568 56.566v794.948c0 31.225-25.343 56.568-56.568 56.568h-404.104v-18.713c0.213-1.925 0.321-3.957 0.321-5.988v-154.947c0-43.95-35.716-79.666-79.666-79.666h-154.947c-1.604 0-3.315 0.107-4.919 0.214h-19.676v-592.415c0-31.224 25.343-56.566 56.568-56.566h303.158zM464.094 244.184h-197.721c-14.757 0-26.734 11.978-26.734 26.734 0 14.758 11.977 26.734 26.734 26.734h197.828c14.757 0 26.734-11.976 26.734-26.734 0-14.756-12.084-26.734-26.84-26.734zM661.921 380.631h-395.549c-14.757 0-26.734 11.978-26.734 26.734 0 14.758 11.977 26.734 26.734 26.734h395.549c14.757 0 26.734-11.976 26.734-26.734 0-14.756-11.977-26.734-26.734-26.734zM266.373 578.994h395.549c14.757 0 26.734-11.977 26.734-26.734s-11.977-26.734-26.734-26.734h-395.549c-14.757 0-26.734 11.977-26.734 26.734s11.977 26.734 26.734 26.734zM117.52 732.765h154.947c0.107 0 0.321 0 0.428 0 25.878 0.214 46.837 21.173 47.051 47.051 0 0.107 0 0.321 0 0.428v155.054c0 14.329-11.763 23.846-23.952 23.846-5.881 0-11.763-2.139-16.682-7.058l-178.688-178.687c-14.971-14.971-4.384-40.635 16.896-40.635z" />
<glyph unicode="&#xe922;" d="M741.518 147.862h35.31v-35.31h-35.31v35.31z" />
<glyph unicode="&#xe923;" d="M423.724 147.862h35.31v-35.31h-35.31v35.31z" />
<glyph unicode="&#xe924;" d="M710.652 267.896c-0.51 1.164-0.982 2.348-1.408 3.554h-3.154c1.54-1.16 3.060-2.348 4.562-3.554z" />
<glyph unicode="&#xe925;" d="M441.38 306.758c-9.732 0-17.656-7.914-17.656-17.656s7.922-17.656 17.656-17.656 17.656 7.914 17.656 17.656c-0.002 9.742-7.924 17.656-17.656 17.656z" />
<glyph unicode="&#xe926;" d="M491.308 271.448c-0.428-1.204-0.896-2.388-1.408-3.55 1.5 1.208 3.020 2.392 4.56 3.55h-3.152z" />
<glyph unicode="&#xe927;" d="M776.828 289.104c0 9.742-7.922 17.656-17.656 17.656s-17.656-7.914-17.656-17.656c0-9.742 7.922-17.656 17.656-17.656s17.656 7.914 17.656 17.656z" />
<glyph unicode="&#xe928;" d="M812.138 748.138c-29.252 0-52.966 23.714-52.966 52.966v158.896h-476.69c-29.252 0-52.966-23.714-52.966-52.966v-123.586h441.38c19.502 0 35.31-15.81 35.31-35.31v-247.172c0-19.5-15.808-35.31-35.31-35.31h-441.38v-476.69c0-29.252 23.714-52.966 52.966-52.966h635.586c29.252 0 52.966 23.714 52.966 52.966v759.172h-158.896zM768.702 183.172h25.772c9.75 0 17.656-7.896 17.656-17.656v-70.62c0-9.758-7.906-17.656-17.656-17.656h-70.62c-9.75 0-17.656 7.896-17.656 17.656v70.62c0 9.758 7.906 17.656 17.656 17.656h7.354c-14.34 35.322-42.65 63.634-77.966 77.976v-7.356c0-9.758-7.906-17.656-17.656-17.656h-70.62c-9.75 0-17.656 7.896-17.656 17.656v7.358c-35.312-14.34-63.624-42.654-77.972-77.978h7.352c9.75 0 17.656-7.896 17.656-17.656v-70.62c0-9.758-7.906-17.656-17.656-17.656h-70.62c-9.75 0-17.656 7.896-17.656 17.656v70.62c0 9.758 7.906 17.656 17.656 17.656h25.774c6.644 21.098 17.172 40.518 30.748 57.412-6.5-2.852-13.672-4.446-21.212-4.446-29.206 0-52.966 23.76-52.966 52.966s23.76 52.966 52.966 52.966c23.018 0 42.642-14.76 49.928-35.31h56.002v17.656c0 9.758 7.906 17.656 17.656 17.656h70.62c9.75 0 17.656-7.896 17.656-17.656v-17.656h56.002c7.288 20.55 26.91 35.31 49.928 35.31 29.206 0 52.966-23.76 52.966-52.966s-23.76-52.966-52.966-52.966c-7.544 0-14.716 1.596-21.214 4.45 13.574-16.894 24.102-36.318 30.744-57.416z" />
<glyph unicode="&#xe929;" d="M582.62 306.758h35.31v-35.31h-35.31v35.31z" />
<glyph unicode="&#xe92a;" d="M812.138 748.138h158.896l-211.862 211.862v-158.896c0-29.252 23.714-52.966 52.966-52.966z" />
<glyph unicode="&#xe92b;" d="M706.206 500.966v247.172c0 19.5-15.808 35.31-35.31 35.31h-582.62c-19.502 0-35.31-15.81-35.31-35.31v-247.172c0-19.5 15.808-35.31 35.31-35.31h582.622c19.5 0 35.308 15.81 35.308 35.31zM211.862 642.206c9.75 0 17.656-7.896 17.656-17.656s-7.906-17.656-17.656-17.656h-52.966v-35.31h88.276c9.75 0 17.656-7.896 17.656-17.656s-7.906-17.656-17.656-17.656h-88.276c-19.474 0-35.31 15.846-35.31 35.31v105.932c0 19.464 15.836 35.31 35.31 35.31h88.276c9.75 0 17.656-7.896 17.656-17.656 0-9.758-7.906-17.656-17.656-17.656h-88.276v-35.31h52.966zM397.242 589.242h-61.794v-35.31c0-9.758-7.906-17.656-17.656-17.656s-17.656 7.896-17.656 17.656v141.242c0 9.758 7.906 17.656 17.656 17.656h79.448c34.070 0 61.794-27.726 61.794-61.794s-27.722-61.794-61.792-61.794zM582.62 536.276h-88.276c-9.75 0-17.656 7.896-17.656 17.656s7.906 17.656 17.656 17.656h88.276c9.732 0 17.656 7.914 17.656 17.656s-7.922 17.656-17.656 17.656h-52.966c-29.206 0-52.966 23.76-52.966 52.966s23.76 52.966 52.966 52.966h70.62c9.75 0 17.656-7.896 17.656-17.656 0-9.758-7.906-17.656-17.656-17.656h-70.62c-9.732 0-17.656-7.914-17.656-17.656s7.922-17.656 17.656-17.656h52.966c29.206 0 52.966-23.76 52.966-52.966s-23.76-52.966-52.966-52.966z" />
<glyph unicode="&#xe92c;" d="M397.242 677.518h-61.794v-52.966h61.794c14.604 0 26.482 11.88 26.482 26.482s-11.88 26.484-26.482 26.484z" />
<glyph unicode="&#xe92d;" d="M397.242 712.828h-79.448c-9.75 0-17.656-7.896-17.656-17.656v-141.242c0-9.758 7.906-17.656 17.656-17.656s17.656 7.896 17.656 17.656v35.31h61.794c34.070 0 61.794 27.726 61.794 61.794s-27.726 61.794-61.796 61.794zM397.242 624.552h-61.794v52.966h61.794c14.604 0 26.482-11.88 26.482-26.482s-11.88-26.484-26.482-26.484z" />
<glyph unicode="&#xe92e;" d="M582.62 642.206h-52.966c-9.732 0-17.656 7.914-17.656 17.656s7.922 17.656 17.656 17.656h70.62c9.75 0 17.656 7.896 17.656 17.656 0 9.758-7.906 17.656-17.656 17.656h-70.62c-29.206 0-52.966-23.76-52.966-52.966s23.76-52.966 52.966-52.966h52.966c9.732 0 17.656-7.914 17.656-17.656s-7.922-17.656-17.656-17.656h-88.276c-9.75 0-17.656-7.896-17.656-17.656s7.906-17.656 17.656-17.656h88.276c29.206 0 52.966 23.76 52.966 52.966s-23.76 52.966-52.966 52.966z" />
<glyph unicode="&#xe92f;" d="M247.172 677.518c9.75 0 17.656 7.896 17.656 17.656 0 9.758-7.906 17.656-17.656 17.656h-88.276c-19.474 0-35.31-15.846-35.31-35.31v-105.932c0-19.464 15.836-35.31 35.31-35.31h88.276c9.75 0 17.656 7.896 17.656 17.656s-7.906 17.656-17.656 17.656h-88.276v35.31h52.966c9.75 0 17.656 7.896 17.656 17.656s-7.906 17.656-17.656 17.656h-52.966v35.31h88.276z" />
<glyph unicode="&#xe930;" d="M812.138 289.104c0 29.206-23.76 52.966-52.966 52.966-23.018 0-42.642-14.76-49.928-35.31h-56.002v17.656c0 9.758-7.906 17.656-17.656 17.656h-70.62c-9.75 0-17.656-7.896-17.656-17.656v-17.656h-56.002c-7.288 20.55-26.91 35.31-49.928 35.31-29.206 0-52.966-23.76-52.966-52.966s23.76-52.966 52.966-52.966c7.54 0 14.714 1.596 21.212 4.446-13.576-16.894-24.104-36.314-30.748-57.412h-25.774c-9.75 0-17.656-7.896-17.656-17.656v-70.62c0-9.758 7.906-17.656 17.656-17.656h70.62c9.75 0 17.656 7.896 17.656 17.656v70.62c0 9.758-7.906 17.656-17.656 17.656h-7.352c14.344 35.324 42.658 63.638 77.972 77.978v-7.358c0-9.758 7.906-17.656 17.656-17.656h70.62c9.75 0 17.656 7.896 17.656 17.656v7.356c35.314-14.342 63.624-42.654 77.966-77.976h-7.354c-9.75 0-17.656-7.896-17.656-17.656v-70.62c0-9.758 7.906-17.656 17.656-17.656h70.62c9.75 0 17.656 7.896 17.656 17.656v70.62c0 9.758-7.906 17.656-17.656 17.656h-25.772c-6.642 21.098-17.17 40.52-30.746 57.414 6.5-2.854 13.674-4.45 21.214-4.45 29.208 0.002 52.968 23.762 52.968 52.968zM459.034 112.552h-35.31v35.31h35.31v-35.31zM776.818 112.552h-35.31v35.31h35.31v-35.31zM710.652 267.896c-1.502 1.208-3.022 2.394-4.564 3.554h3.154c0.43-1.206 0.9-2.392 1.41-3.554zM491.308 271.448h3.152c-1.54-1.158-3.058-2.344-4.56-3.55 0.512 1.162 0.98 2.346 1.408 3.55zM441.38 271.448c-9.732 0-17.656 7.914-17.656 17.656s7.922 17.656 17.656 17.656 17.656-7.914 17.656-17.656c-0.002-9.742-7.924-17.656-17.656-17.656zM617.932 271.448h-35.312v35.31h35.31v-35.31zM741.518 289.104c0 9.742 7.922 17.656 17.656 17.656s17.656-7.914 17.656-17.656c0-9.742-7.922-17.656-17.656-17.656s-17.656 7.914-17.656 17.656z" />
<glyph unicode="&#xe931;" d="M884.336 432.484h-744.728c-25.706 0-46.546-20.84-46.546-46.546v-403.394c0-25.706 20.84-46.546 46.546-46.546h744.728c25.706 0 46.546 20.84 46.546 46.546v403.396c0 25.704-20.84 46.544-46.546 46.544zM336.982 127.466c0-9.526-8.006-16.992-18.224-16.992-10.216 0-18.214 7.462-18.214 16.992v119.866c0 9.638 7.662 16.632 18.214 16.632 10.392 0 18.224-7.15 18.224-16.632v-119.866zM468.89 127.466c0-9.526-8.006-16.992-18.224-16.992-4.506 0-12.942 1.76-18.844 13.538l-25.42 49.474v-46.022c0-9.526-8.006-16.992-18.224-16.992-10.216 0-18.214 7.462-18.214 16.992v119.686c0 9.74 7.662 16.812 18.214 16.812 12.468 0 18.262-11.118 20.166-14.774l24.102-47.488v45.63c0 9.638 7.664 16.632 18.224 16.632 10.392 0 18.224-7.15 18.224-16.632v-119.866h-0.004zM599.952 160.55c0-31.356-18.394-50.076-49.202-50.076h-31.15c-0.66 0-1.312 0.040-1.952 0.108-0.118 0.012-0.232 0.038-0.348 0.052-0.54 0.066-1.076 0.152-1.602 0.266-0.074 0.016-0.152 0.038-0.226 0.056-0.574 0.13-1.136 0.288-1.684 0.468-0.024 0.010-0.050 0.018-0.072 0.024-0.592 0.198-1.172 0.432-1.738 0.686h-0.008c-1.484 0.676-2.848 1.54-4.072 2.566-0.010 0.006-0.016 0.012-0.022 0.018-1.2 1.014-2.262 2.176-3.138 3.46-0.034 0.050-0.066 0.102-0.094 0.152-0.376 0.562-0.71 1.146-1.014 1.75-0.056 0.106-0.112 0.21-0.162 0.32-0.316 0.654-0.586 1.332-0.812 2.026-0.024 0.080-0.040 0.162-0.066 0.242-0.186 0.606-0.322 1.228-0.434 1.862-0.038 0.186-0.066 0.37-0.090 0.556-0.1 0.72-0.17 1.452-0.17 2.196v120.046c0 0.754 0.066 1.486 0.168 2.212 0.028 0.19 0.058 0.372 0.086 0.558 0.108 0.642 0.254 1.272 0.438 1.884 0.022 0.072 0.038 0.146 0.058 0.218 0.22 0.698 0.494 1.368 0.804 2.020 0.056 0.112 0.108 0.218 0.164 0.328 0.304 0.602 0.642 1.188 1.018 1.748 0.028 0.044 0.052 0.086 0.080 0.13 0.434 0.632 0.912 1.232 1.428 1.802 0.006 0.004 0.012 0.010 0.016 0.016 0.524 0.574 1.096 1.108 1.7 1.608 0.006 0.004 0.010 0.010 0.016 0.012 1.222 1.008 2.598 1.852 4.092 2.51 0 0 0 0 0.004 0s0.004 0 0.004 0c0.562 0.246 1.132 0.462 1.726 0.654 0.028 0.010 0.052 0.018 0.074 0.024 0.546 0.174 1.104 0.322 1.676 0.446 0.074 0.016 0.152 0.038 0.23 0.056 0.524 0.108 1.062 0.19 1.604 0.254 0.114 0.016 0.23 0.038 0.344 0.050 0.646 0.066 1.3 0.102 1.968 0.102h31.152c30.81 0 49.202-18.656 49.202-49.906v-53.512h0.004zM729.61 160.55c0-31.356-18.394-50.076-49.202-50.076h-31.152c-9.76 0-17.694 7.54-17.694 16.812v120.046c0 9.328 7.774 16.632 17.694 16.632h31.152c30.81 0 49.202-18.656 49.202-49.906v-53.508z" />
<glyph unicode="&#xe932;" d="M93.062 385.94c0 25.706 20.84 46.546 46.546 46.546h744.728c25.706 0 46.546-20.84 46.546-46.546v216.024c-0.642-25.146-21.178-45.344-46.484-45.344-0.024 0-0.044 0-0.062 0h-310.304c-25.706 0-46.546 20.84-46.546 46.546v310.288c0 18.826 11.338 35.796 28.734 43.002 5.988 2.48 12.284 3.602 18.512 3.506-0.234 0.006-0.464 0.038-0.7 0.038h-434.424c-25.706 0-46.546-20.84-46.546-46.546 0 0 0-527.514 0-527.514z" />
<glyph unicode="&#xe933;" d="M527.488 913.454v-310.292c0-25.706 20.84-46.546 46.546-46.546h310.304c0.018 0 0.038 0 0.062 0 25.306 0 45.842 20.2 46.484 45.344 0.010 0.404 0.062 0.794 0.062 1.2 0 9.644-2.972 18.572-7.996 26.004-0.006 0.010-0.012 0.018-0.018 0.028-0.794 1.172-1.648 2.306-2.542 3.398-0.072 0.090-0.142 0.184-0.218 0.274-0.848 1.024-1.75 2.002-2.678 2.948-0.146 0.146-0.288 0.294-0.434 0.44-0.41 0.4-0.788 0.838-1.21 1.226l-308.904 308.89c-0.966 0.968-1.976 1.868-3.014 2.734-0.316 0.264-0.64 0.512-0.962 0.766-0.748 0.596-1.514 1.17-2.3 1.72-0.384 0.266-0.77 0.534-1.16 0.792-0.816 0.536-1.656 1.040-2.508 1.524-0.342 0.192-0.676 0.404-1.018 0.586-1.124 0.602-2.278 1.154-3.45 1.664-0.474 0.204-0.958 0.384-1.44 0.57-0.776 0.308-1.558 0.596-2.356 0.862-0.544 0.18-1.090 0.354-1.632 0.516-0.894 0.26-1.8 0.49-2.716 0.698-0.406 0.094-0.806 0.204-1.22 0.288-1.29 0.258-2.606 0.454-3.934 0.598-0.41 0.046-0.82 0.072-1.226 0.108-1.086 0.094-2.176 0.148-3.28 0.168-6.228 0.096-12.524-1.030-18.512-3.506-17.39-7.204-28.73-24.176-28.73-43.002z" />
<glyph unicode="&#xe934;" d="M680.404 228.404h-12.406v-82.376h12.406c8.084 0 12.76 2.376 12.76 14.52v53.508c0.004 12.064-4.48 14.348-12.76 14.348z" />
<glyph unicode="&#xe935;" d="M680.404 263.966h-31.152c-9.92 0-17.694-7.304-17.694-16.632v-120.046c0-9.272 7.938-16.812 17.694-16.812h31.152c30.81 0 49.204 18.72 49.204 50.076v53.508c0.002 31.25-18.394 49.906-49.204 49.906zM693.168 160.55c0-12.142-4.68-14.52-12.76-14.52h-12.406v82.376h12.406c8.276 0 12.76-2.286 12.76-14.348v-53.508z" />
<glyph unicode="&#xe936;" d="M318.758 263.966c-10.554 0-18.214-6.994-18.214-16.632v-119.866c0-9.526 8-16.99 18.214-16.99 10.218 0 18.224 7.462 18.224 16.99v119.866c0 9.482-7.834 16.632-18.224 16.632z" />
<glyph unicode="&#xe937;" d="M450.666 263.966c-10.56 0-18.224-6.994-18.224-16.632v-45.626l-24.102 47.488c-1.906 3.652-7.698 14.774-20.166 14.774-10.554 0-18.214-7.072-18.214-16.812v-119.688c0-9.526 8-16.99 18.214-16.99 10.218 0 18.224 7.462 18.224 16.99v46.022l25.42-49.474c5.902-11.78 14.34-13.538 18.844-13.538 10.218 0 18.224 7.462 18.224 16.99v119.866c0.004 9.48-7.828 16.63-18.22 16.63z" />
<glyph unicode="&#xe938;" d="M563.51 160.55v53.51c0 12.062-4.484 14.348-12.76 14.348h-12.402v-82.376h12.402c8.080-0.004 12.76 2.374 12.76 14.518z" />
<glyph unicode="&#xe939;" d="M550.748 263.966h-31.152c-0.668 0-1.326-0.038-1.968-0.102-0.114-0.010-0.23-0.034-0.344-0.050-0.544-0.066-1.080-0.142-1.604-0.254-0.078-0.016-0.156-0.038-0.23-0.056-0.57-0.128-1.13-0.27-1.676-0.446-0.024-0.006-0.050-0.016-0.074-0.024-0.586-0.192-1.164-0.41-1.726-0.654 0 0 0 0-0.004 0s-0.004 0-0.004 0c-1.496-0.658-2.874-1.504-4.092-2.51-0.006-0.004-0.010-0.006-0.016-0.012-0.606-0.5-1.172-1.036-1.7-1.608-0.004-0.006-0.010-0.010-0.016-0.016-0.518-0.568-0.992-1.17-1.428-1.802-0.032-0.044-0.056-0.086-0.080-0.13-0.376-0.558-0.71-1.146-1.018-1.748-0.056-0.112-0.108-0.218-0.164-0.328-0.31-0.652-0.584-1.326-0.804-2.020-0.022-0.072-0.038-0.146-0.058-0.218-0.186-0.614-0.326-1.244-0.438-1.884-0.032-0.186-0.062-0.37-0.086-0.558-0.1-0.724-0.168-1.458-0.168-2.212v-120.046c0-0.748 0.068-1.478 0.17-2.196 0.024-0.186 0.056-0.372 0.090-0.556 0.108-0.634 0.248-1.254 0.434-1.862 0.024-0.080 0.040-0.162 0.066-0.242 0.224-0.698 0.496-1.372 0.812-2.026 0.050-0.108 0.108-0.214 0.162-0.32 0.304-0.602 0.64-1.188 1.014-1.75 0.032-0.050 0.062-0.102 0.094-0.152 0.878-1.284 1.934-2.448 3.138-3.46 0.006-0.006 0.012-0.012 0.022-0.018 1.222-1.024 2.592-1.89 4.072-2.566h0.008c0.564-0.258 1.146-0.484 1.738-0.686 0.024-0.006 0.050-0.016 0.072-0.024 0.55-0.184 1.11-0.336 1.684-0.468 0.074-0.016 0.152-0.040 0.226-0.056 0.524-0.114 1.062-0.198 1.602-0.266 0.118-0.016 0.23-0.040 0.348-0.052 0.64-0.068 1.29-0.108 1.952-0.108h31.152c30.81 0 49.202 18.72 49.202 50.076v53.508c-0.004 31.246-18.398 49.902-49.208 49.902zM563.51 160.55c0-12.146-4.68-14.52-12.76-14.52h-12.402v82.376h12.402c8.276 0 12.76-2.286 12.76-14.348v-53.508z" />
<glyph unicode="&#xe93a;" d="M511.968 112.14c-1.484 0.676-2.848 1.54-4.072 2.566-0.010 0.006-0.016 0.012-0.022 0.018-1.2 1.014-2.262 2.176-3.138 3.46-0.034 0.050-0.066 0.102-0.094 0.152-0.376 0.562-0.71 1.146-1.014 1.75-0.056 0.106-0.112 0.21-0.162 0.32-0.316 0.654-0.59 1.332-0.812 2.026-0.024 0.080-0.040 0.162-0.066 0.242-0.186 0.606-0.322 1.228-0.434 1.862-0.038 0.186-0.066 0.37-0.090 0.556-0.1 0.72-0.17 1.452-0.17 2.196v120.046c0 0.754 0.066 1.49 0.168 2.212 0.028 0.19 0.058 0.372 0.086 0.558 0.108 0.642 0.254 1.272 0.438 1.884 0.022 0.072 0.038 0.146 0.056 0.218 0.22 0.698 0.494 1.368 0.804 2.020 0.056 0.112 0.108 0.218 0.164 0.328 0.304 0.602 0.642 1.188 1.018 1.748 0.028 0.044 0.052 0.086 0.080 0.13 0.434 0.634 0.912 1.232 1.428 1.8 0.006 0.006 0.012 0.010 0.016 0.016 0.524 0.574 1.092 1.108 1.7 1.608 0.006 0.004 0.010 0.010 0.016 0.012 1.222 1.008 2.598 1.852 4.092 2.51 0 0 0 0 0.004 0.004v170.102h-372.362c-25.706 0-46.546-20.84-46.546-46.546v-403.394c0-25.706 20.84-46.546 46.546-46.546h372.364l0.002 176.142zM336.982 127.466c0-9.526-8.006-16.99-18.224-16.99-10.216 0-18.214 7.462-18.214 16.99v119.866c0 9.638 7.662 16.632 18.214 16.632 10.392 0 18.224-7.15 18.224-16.632v-119.866zM468.89 127.466c0-9.526-8.006-16.99-18.224-16.99-4.506 0-12.942 1.76-18.844 13.538l-25.42 49.474v-46.022c0-9.526-8.006-16.99-18.224-16.99-10.216 0-18.214 7.462-18.214 16.99v119.688c0 9.74 7.662 16.812 18.214 16.812 12.468 0 18.262-11.118 20.166-14.774l24.102-47.488v45.626c0 9.638 7.664 16.632 18.224 16.632 10.392 0 18.224-7.15 18.224-16.632v-119.866h-0.004z" />
<glyph unicode="&#xe93b;" d="M506.16 258.246c0.528 0.57 1.092 1.108 1.7 1.608-0.604-0.5-1.176-1.034-1.7-1.608z" />
<glyph unicode="&#xe93c;" d="M507.876 259.866c1.222 1.006 2.598 1.852 4.092 2.51-1.494-0.658-2.87-1.502-4.092-2.51z" />
<glyph unicode="&#xe93d;" d="M504.742 118.182c0.876-1.284 1.936-2.446 3.138-3.46-1.204 1.012-2.26 2.176-3.138 3.46z" />
<glyph unicode="&#xe93e;" d="M511.968 112.14c-1.48 0.676-2.848 1.542-4.072 2.566 1.224-1.026 2.592-1.89 4.072-2.566z" />
<glyph unicode="&#xe93f;" d="M504.718 256.432c0.434 0.632 0.91 1.234 1.428 1.8-0.516-0.568-0.994-1.168-1.428-1.8z" />
<glyph unicode="&#xe940;" d="M502.158 250.102c0.108 0.642 0.252 1.272 0.438 1.884-0.184-0.612-0.33-1.242-0.438-1.884z" />
<glyph unicode="&#xe941;" d="M502.074 125.086c-0.1 0.72-0.17 1.452-0.17 2.196-0.002-0.744 0.070-1.472 0.17-2.196z" />
<glyph unicode="&#xe942;" d="M502.598 122.672c-0.186 0.606-0.322 1.228-0.434 1.862 0.108-0.634 0.248-1.256 0.434-1.862z" />
<glyph unicode="&#xe943;" d="M503.618 254.554c0.308 0.602 0.642 1.188 1.018 1.748-0.376-0.56-0.716-1.142-1.018-1.748z" />
<glyph unicode="&#xe944;" d="M504.648 118.334c-0.376 0.562-0.71 1.148-1.014 1.75 0.302-0.604 0.64-1.188 1.014-1.75z" />
<glyph unicode="&#xe945;" d="M502.65 252.206c0.22 0.696 0.494 1.368 0.804 2.020-0.31-0.652-0.58-1.326-0.804-2.020z" />
<glyph unicode="&#xe946;" d="M501.902 247.33c0 0.754 0.066 1.49 0.168 2.212-0.1-0.722-0.168-1.458-0.168-2.212z" />
<glyph unicode="&#xe947;" d="M503.472 120.404c-0.316 0.654-0.59 1.332-0.812 2.026 0.224-0.698 0.496-1.372 0.812-2.026z" />
<glyph unicode="&#xe948;" d="M511.976 262.38c0.562 0.246 1.136 0.462 1.726 0.654-0.594-0.192-1.166-0.41-1.726-0.654z" />
<glyph unicode="&#xe949;" d="M513.774 263.060c0.546 0.176 1.104 0.322 1.676 0.446-0.568-0.124-1.13-0.272-1.676-0.446z" />
<glyph unicode="&#xe94a;" d="M513.712 111.452c-0.59 0.202-1.172 0.432-1.738 0.686 0.566-0.258 1.144-0.488 1.738-0.686z" />
<glyph unicode="&#xe94b;" d="M515.47 110.956c-0.574 0.134-1.136 0.286-1.684 0.468 0.548-0.18 1.112-0.338 1.684-0.468z" />
<glyph unicode="&#xe94c;" d="M517.296 110.632c-0.54 0.068-1.076 0.152-1.602 0.266 0.526-0.11 1.062-0.198 1.602-0.266z" />
<glyph unicode="&#xe94d;" d="M519.596 110.474c-0.66 0-1.312 0.040-1.952 0.108 0.64-0.068 1.292-0.108 1.952-0.108z" />
<glyph unicode="&#xe94e;" d="M515.684 263.56c0.524 0.108 1.062 0.19 1.604 0.254-0.546-0.062-1.080-0.146-1.604-0.254z" />
<glyph unicode="&#xe94f;" d="M517.632 263.864c0.642 0.066 1.3 0.102 1.968 0.102-0.672 0-1.326-0.038-1.968-0.102z" />
<glyph unicode="&#xe950;" glyph-name="hand" d="M253.685 620.396c-7.024 23.784-13.768 47.608-18.836 70.435-33.322 19.714-55.989 55.59-55.989 97.053 0 62.374 50.721 113.055 113.055 113.055s113.055-50.721 113.055-113.055c0-8.58-1.157-16.841-2.953-24.862 10.815-23.824 19.554-50.641 27.216-77.897 21.549 28.733 34.798 64.050 34.798 102.759 0 95.097-77.019 172.117-172.117 172.117s-172.077-77.019-172.077-172.117c0-81.888 57.266-150.088 133.846-167.487zM134.804 212.911c42.421 45.853 90.029 27.895 153.76 18.197 54.752-8.42 108.665 6.944 105.074 36.514-5.667 47.848-13.648 69.238-31.805 131.212-14.486 49.284-41.982 138.116-67.003 223.037-33.521 113.614-43.219 166.37 1.397 179.539 48.087 14.007 75.663-54.313 100.644-149.051 28.453-107.827 43.418-155.436 51.799-152.922 14.765 4.23-5.427 50.362 33.202 61.735 48.287 14.047 57.625-23.704 71.153-19.913 13.528 4.070 8.939 42.301 47.449 53.554 38.709 11.174 58.144-36.475 74.106-31.726 15.803 4.669 15.444 21.869 39.308 28.693 23.904 7.103 113.853-33.162 165.333-209.030 64.609-221.122-8.181-262.225 13.887-337.090l-288.404-109.663c-23.345 56.148-95.656 60.299-159.626 96.095-64.449 36.275-108.226 106.949-276.193 103.517-63.172-1.277-60.179 49.085-34.080 77.299z" />
<glyph unicode="&#xe951;" glyph-name="inclined-picker" d="M660.494 540.78l-55.693 55.691c-3.627 3.627-8.48 5.626-13.657 5.626-4.91 0-9.573-1.823-13.138-5.131l-13.952-12.962-5.446 5.446c-5.381 5.384-12.552 8.347-20.192 8.347-7.642 0-14.816-2.963-20.195-8.347l-19.926-19.926c-11.136-11.136-11.136-29.253 0-40.389l3.225-3.225-495.493-460.304c-3.725-3.463-5.912-8.354-6.005-13.416s1.918-10.027 5.512-13.623l97.048-97.048c3.556-3.558 8.273-5.517 13.281-5.517 5.193 0 10.206 2.192 13.759 6.012l460.304 495.486 3.225-3.225c5.381-5.384 12.555-8.347 20.195-8.347s14.813 2.963 20.192 8.347l19.926 19.926c11.136 11.136 11.136 29.253 0 40.389l-5.446 5.446 12.962 13.952c6.985 7.519 6.769 19.538-0.488 26.794zM1017.372 297.092l-23.377 161.752c-6.107 42.26-34.546 99.017-64.739 129.208l-85.144 85.144 22.084 22.084c7.176 7.173 11.127 16.736 11.127 26.925 0 10.191-3.951 19.757-11.127 26.925l-53.042 53.044c-7.173 7.176-16.736 11.127-26.928 11.127-10.189 0-19.754-3.951-26.925-11.127l-22.087-22.087-85.146 85.144c-30.191 30.193-86.948 58.632-129.208 64.739l-161.752 23.377c-28.37 4.106-51.594 6.652-60.608 6.652-12.524 0-16.087-7.188-17.098-11.474-1.319-5.598 0.697-12.909 8.159-16.629 6.586-3.287 44.821-18.381 77.456-30.912l104.934-40.294c34.591-13.281 85.957-46.642 112.166-72.846l79.422-79.424-35.939-35.939c-7.176-7.173-11.127-16.736-11.127-26.928 0-10.189 3.951-19.754 11.127-26.925l53.042-53.042c7.173-7.176 16.736-11.127 26.928-11.127s19.757 3.951 26.928 11.127l35.941 35.941 79.424-79.427c26.207-26.207 59.565-77.57 72.846-112.162l40.294-104.938c12.533-32.633 27.625-70.868 30.91-77.446 2.663-5.343 7.635-8.54 13.3-8.549l6.674 0.062 4.282 4.934c4.432 5.11 6.659 7.678-2.797 73.091z" />
<glyph unicode="&#xe952;" glyph-name="interface" d="M842.92 769.176h-182.934v176.294l182.934-176.294zM706.835 223.439c-18.755 18.759-43.695 29.091-70.219 29.091s-51.464-10.328-70.219-29.091c-38.718-38.714-38.718-101.717 0-140.442 18.755-18.751 43.695-29.087 70.219-29.087s51.464 10.328 70.215 29.087c18.755 18.759 29.091 43.699 29.091 70.223s-10.328 51.468-29.087 70.219zM767.089-64l-575.821 1.865c-16.095 0.055-29.761 13.112-29.761 29.208v963.719c0 16.134 14.37 29.208 30.505 29.208h409.559v-220.032c0-16.134 14.37-29.208 30.505-29.208h230.418v-697.972l-80.356 81.011c7.571 18.623 11.878 38.714 11.878 59.424 0 42.129-16.243 81.735-46.035 111.523-29.788 29.792-69.316 46.199-111.445 46.199s-81.696-16.407-111.488-46.195c-61.492-61.496-61.473-161.554 0.019-223.054 29.792-29.788 69.409-46.195 111.539-46.195 20.71 0 40.805 3.984 59.428 11.555l71.057-71.057zM285.476 564.722c0-16.134 13.073-29.208 29.208-29.208h385.542c16.134 0 29.208 13.073 29.208 29.208s-13.073 29.208-29.208 29.208h-385.542c-16.134 0-29.208-13.073-29.208-29.208zM314.684 414.789h385.542c16.134 0 29.208 13.073 29.208 29.208s-13.073 29.208-29.208 29.208h-385.542c-16.134 0-29.208-13.073-29.208-29.208s13.073-29.208 29.208-29.208z" />
<glyph unicode="&#xe953;" d="M676.297 960h-530.688c-14.775 0-26.752-11.977-26.752-35.218v-970.496c0-6.309 11.977-18.286 26.752-18.286h732.782c14.775 0 26.752 11.977 26.752 18.286v768.402c0 12.727-1.701 16.823-4.699 19.84l-212.773 212.773c-3.017 2.999-7.113 4.699-11.374 4.699z" />
<glyph unicode="&#xe954;" d="M685.714 957.239v-216.667h216.667z" />
<glyph unicode="&#xe955;" d="M878.391-64h-732.782c-14.775 0-26.752 11.977-26.752 26.752v284.105h786.286v-284.105c0-14.775-11.977-26.752-26.752-26.752z" />
<glyph unicode="&#xe956;" d="M321.481-9.143h-30.007v184.247h52.992c7.826 0 15.579-1.243 23.241-3.749s14.537-6.254 20.626-11.246c6.089-4.992 11.008-11.045 14.757-18.121s5.632-15.031 5.632-23.881c0-9.344-1.591-17.792-4.754-25.381s-7.589-13.97-13.257-19.127c-5.669-5.157-12.507-9.161-20.498-11.995s-16.841-4.242-26.496-4.242h-22.254v-66.505zM321.481 152.357v-72.997h27.502c3.657 0 7.278 0.622 10.88 1.883 3.584 1.243 6.875 3.291 9.874 6.126s5.413 6.784 7.241 11.867c1.829 5.083 2.743 11.374 2.743 18.871 0 2.999-0.421 6.473-1.243 10.368-0.841 3.913-2.542 7.662-5.12 11.246-2.597 3.584-6.217 6.583-10.88 8.997s-10.843 3.621-18.505 3.621h-22.491z" />
<glyph unicode="&#xe957;" d="M472.741-9.143h-30.007v184.247h52.992c7.826 0 15.579-1.243 23.241-3.749s14.537-6.254 20.626-11.246c6.089-4.992 11.008-11.045 14.757-18.121s5.632-15.031 5.632-23.881c0-9.344-1.591-17.792-4.754-25.381s-7.589-13.97-13.257-19.127c-5.669-5.157-12.507-9.161-20.498-11.995s-16.841-4.242-26.496-4.242h-22.254v-66.505zM472.741 152.357v-72.997h27.502c3.657 0 7.278 0.622 10.88 1.883 3.584 1.243 6.875 3.291 9.874 6.126s5.413 6.784 7.241 11.867c1.829 5.083 2.743 11.374 2.743 18.871 0 2.999-0.421 6.473-1.243 10.368-0.841 3.913-2.542 7.662-5.12 11.246-2.597 3.584-6.217 6.583-10.88 8.997s-10.843 3.621-18.505 3.621h-22.491z" />
<glyph unicode="&#xe958;" d="M724.224 175.104v-20.498h-55.003v-163.749h-30.245v163.749h-55.003v20.498h140.251z" />
<glyph unicode="&#xe959;" d="M722.286 411.429h-438.857v292.571h438.857v-292.571zM320 448h365.714v219.429h-365.714v-219.429z" />
<glyph unicode="&#xe95a;" d="M374.839 320c-3.2 0-6.455 0.841-9.399 2.615-8.667 5.193-11.465 16.421-6.272 25.088l54.857 91.429c5.193 8.667 16.421 11.465 25.088 6.272s11.465-16.421 6.272-25.088l-54.857-91.429c-3.419-5.723-9.472-8.887-15.689-8.887z" />
<glyph unicode="&#xe95b;" d="M630.875 320c-6.217 0-12.27 3.163-15.689 8.869l-54.857 91.429c-5.193 8.667-2.395 19.895 6.272 25.088 8.667 5.175 19.895 2.395 25.088-6.272l54.857-91.429c5.193-8.667 2.395-19.895-6.272-25.088-2.944-1.755-6.199-2.597-9.399-2.597z" />
<glyph unicode="&#xe95c;" d="M502.857 667.429c-10.094 0-18.286 8.174-18.286 18.286v54.857c0 10.112 8.192 18.286 18.286 18.286s18.286-8.174 18.286-18.286v-54.857c0-10.112-8.192-18.286-18.286-18.286z" />
<glyph unicode="&#xe95d;" d="M320 667.429h365.714v-219.429h-365.714v219.429z" />
<glyph unicode="&#xe95e;" d="M676.297 960h-530.688c-14.775 0-26.752-11.977-26.752-35.218v-970.496c0-6.309 11.977-18.286 26.752-18.286h732.782c14.775 0 26.752 11.977 26.752 18.286v768.402c0 12.727-1.701 16.823-4.699 19.84l-212.773 212.773c-3.017 2.999-7.113 4.699-11.374 4.699z" />
<glyph unicode="&#xe95f;" d="M878.391-64h-732.782c-14.775 0-26.752 11.977-26.752 26.752v284.105h786.286v-284.105c0-14.775-11.977-26.752-26.752-26.752z" />
<glyph unicode="&#xe960;" d="M366.939-9.143l64.494 184.009h29.751l64.018-184.009h-30.994l-13.257 38.254h-69.248l-13.513-38.254h-31.25zM418.688 49.353h55.003l-27.246 79.506-27.758-79.506z" />
<glyph unicode="&#xe961;" d="M594.944-9.143h-30.501v184.247h30.501v-184.247z" />
<glyph unicode="&#xe962;" d="M685.714 758.857v-8.43c-56.155-17.701-100.626-61.842-118.894-117.76-12.562 10.149-28.306 16.475-45.678 16.475-33.993 0-62.373-23.406-70.546-54.857h-57.454v36.571h-109.714v-109.714h109.714v36.571h53.413c-6.144-48.695-36.297-91.026-80.256-112.695-12.215 23.387-36.425 39.552-64.585 39.552-40.338 0-73.143-32.805-73.143-73.143s32.805-73.143 73.143-73.143c39.241 0 71.095 31.122 72.814 69.943 48.549 21.047 84.974 61.934 101.010 111.049 12.544-10.112 28.27-16.421 45.605-16.421 33.993 0 62.373 23.406 70.546 54.857h57.454v-36.571h109.714v109.714h-109.714v-36.571h-53.595c6.93 55.205 44.69 100.827 95.488 119.186 10.825-26.935 37.065-46.043 67.822-46.043 40.338 0 73.143 32.805 73.143 73.143v18.286h-146.286zM356.571 557.714h-36.571v36.571h36.571v-36.571zM301.714 374.857c-20.169 0-36.571 16.402-36.571 36.571s16.402 36.571 36.571 36.571 36.571-16.402 36.571-36.571-16.402-36.571-36.571-36.571zM685.714 594.286h36.571v-36.571h-36.571v36.571zM521.143 539.429c-20.169 0-36.571 16.402-36.571 36.571s16.402 36.571 36.571 36.571 36.571-16.402 36.571-36.571-16.402-36.571-36.571-36.571zM758.857 704c-13.221 0-24.741 7.113-31.159 17.627 4.242 0.384 8.521 0.658 12.873 0.658h49.938c-6.309-10.917-18.139-18.286-31.653-18.286z" />
<glyph unicode="&#xe963;" d="M685.714 957.239v-216.667h216.667z" />
<glyph unicode="&#xe964;" d="M676.297 960h-530.688c-14.775 0-26.752-11.977-26.752-35.218v-970.496c0-6.309 11.977-18.286 26.752-18.286h732.782c14.775 0 26.752 11.977 26.752 18.286v768.402c0 12.727-1.701 16.823-4.699 19.84l-212.773 212.773c-3.017 2.999-7.113 4.699-11.374 4.699z" />
<glyph unicode="&#xe965;" d="M685.714 957.239v-216.667h216.667z" />
<glyph unicode="&#xe966;" d="M429.714 696.119c0-46.142-37.405-83.547-83.547-83.547s-83.547 37.405-83.547 83.547c0 46.142 37.405 83.547 83.547 83.547s83.547-37.405 83.547-83.547z" />
<glyph unicode="&#xe967;" d="M118.857 246.857h786.286v201.143l-182.857 173.714-192-210.286-100.261 100.261z" />
<glyph unicode="&#xe968;" d="M878.391-64h-732.782c-14.775 0-26.752 11.977-26.752 26.752v284.105h786.286v-284.105c0-14.775-11.977-26.752-26.752-26.752z" />
<glyph unicode="&#xe969;" d="M391.79 180.114v-143.506c0-8.667-1.591-15.963-4.754-21.87s-7.424-10.661-12.745-14.245c-5.339-3.584-11.465-6.089-18.377-7.497-6.93-1.426-14.043-2.139-21.376-2.139-3.675 0-7.973 0.384-12.873 1.134-4.919 0.75-10.002 1.902-15.25 3.493s-10.295 3.383-15.122 5.376c-4.846 1.993-8.923 4.242-12.251 6.747l12.745 20.242c1.664-1.152 4.041-2.377 7.131-3.621 3.072-1.243 6.455-2.414 10.13-3.493 3.657-1.097 7.497-2.030 11.502-2.871s7.753-1.243 11.246-1.243c8.832 0 15.872 1.719 21.12 5.12s8.027 9.216 8.375 17.371v141.001h30.501z" />
<glyph unicode="&#xe96a;" d="M466.542-7.899h-30.007v184.265h52.992c7.826 0 15.579-1.243 23.241-3.749s14.537-6.254 20.626-11.246c6.089-4.992 11.008-11.045 14.757-18.121s5.632-15.031 5.632-23.881c0-9.344-1.591-17.792-4.754-25.381s-7.589-13.97-13.257-19.127c-5.669-5.157-12.507-9.161-20.498-11.995s-16.841-4.242-26.496-4.242h-22.254v-66.523zM466.542 153.6v-72.997h27.502c3.657 0 7.278 0.622 10.88 1.883 3.584 1.243 6.875 3.291 9.874 6.126s5.413 6.784 7.241 11.867c1.829 5.083 2.743 11.374 2.743 18.871 0 2.999-0.421 6.473-1.243 10.368-0.841 3.913-2.542 7.662-5.12 11.246-2.597 3.584-6.217 6.583-10.88 8.997-4.681 2.432-10.843 3.639-18.505 3.639h-22.491z" />
<glyph unicode="&#xe96b;" d="M722.286 87.113v-71.241c-3.84-4.846-8.119-8.777-12.873-11.867s-9.746-5.632-14.994-7.625-10.661-3.419-16.256-4.242c-5.595-0.878-11.118-1.28-16.622-1.28-11.008 0-21.12 1.993-30.373 5.998s-17.335 9.911-24.247 17.755c-6.912 7.845-12.343 17.664-16.256 29.495s-5.87 25.509-5.87 40.997 1.957 29.129 5.87 40.869c3.913 11.758 9.326 21.541 16.256 29.367 6.912 7.845 15.031 13.787 24.375 17.883 9.326 4.096 19.419 6.126 30.245 6.126 10.002 0 19.328-1.664 27.995-4.992 8.667-3.346 16.402-8.338 23.241-14.994l-20.754-18.505c-4.005 4.846-8.594 8.338-13.751 10.496-5.175 2.158-10.496 3.255-16 3.255-6.162 0-12.050-1.152-17.627-3.493-5.595-2.341-10.587-6.29-14.994-11.867-4.425-5.595-7.881-12.782-10.368-21.632s-3.84-19.657-4.005-32.494c0.165-12.507 1.463-23.333 3.877-32.494s5.742-16.658 10.002-22.491 9.088-10.167 14.501-13.001c5.413-2.834 11.118-4.242 17.134-4.242 1.829 0 4.279 0.128 7.369 0.384 3.072 0.256 6.162 0.658 9.253 1.243 3.072 0.585 6.034 1.371 8.869 2.377s4.919 2.414 6.254 4.242v45.495h-31.25v20.498h61.001z" />
<glyph unicode="&#xe96c;" glyph-name="line" d="M994.823 843.306c-28.13 18.084-64.297 8.037-82.381-20.093l-283.31-462.137-106.493 138.641c-26.121 34.158-76.353 32.149-98.455-4.019l-122.567-204.948-56.26 74.344c-26.121 34.158-78.362 32.149-100.465-4.019l-136.632-227.050c-22.102-38.177 2.009-90.418 50.232-90.418 20.093 0 40.186 10.046 52.242 28.13l90.418 150.697 56.26-76.353c26.121-34.158 78.362-32.149 100.465 4.019l122.567 206.957 106.493-138.641c26.121-34.158 76.353-30.139 98.455 4.019l329.524 538.491c18.084 28.13 8.037 64.297-20.093 82.381z" />
<glyph unicode="&#xe96d;" glyph-name="logo" d="M511.978 960c-282.732 0-511.978-229.246-511.978-511.978s229.246-512.022 511.978-512.022 512.022 229.289 512.022 512.022-229.289 511.978-512.022 511.978zM618.561 166.503c-26.353-10.403-47.332-18.291-63.065-23.752-15.69-5.461-33.938-8.192-54.7-8.192-31.901 0-56.737 7.802-74.422 23.362s-26.483 35.282-26.483 59.251c0 9.319 0.65 18.855 1.95 28.564 1.344 9.709 3.468 20.632 6.372 32.898l32.985 116.508c2.904 11.183 5.418 21.802 7.412 31.684 1.994 9.969 2.947 19.115 2.947 27.437 0 14.824-3.077 25.226-9.189 31.078-6.198 5.851-17.858 8.712-35.239 8.712-8.495 0-17.251-1.257-26.223-3.901-8.886-2.731-16.601-5.201-22.929-7.629l8.712 35.889c21.585 8.799 42.26 16.341 61.982 22.582 19.721 6.328 38.359 9.449 55.914 9.449 31.684 0 56.13-7.715 73.338-22.972 17.121-15.3 25.746-35.195 25.746-59.641 0-5.071-0.607-14-1.777-26.743-1.17-12.786-3.381-24.446-6.588-35.152l-32.811-116.162c-2.687-9.319-5.071-19.982-7.238-31.901-2.124-11.92-3.164-21.022-3.164-27.133 0-15.43 3.424-25.963 10.359-31.554 6.848-5.591 18.855-8.409 35.845-8.409 8.019 0 16.991 1.43 27.133 4.204 10.056 2.774 17.338 5.245 21.932 7.368l-8.799-35.845zM612.753 637.998c-15.3-14.217-33.722-21.325-55.263-21.325-21.499 0-40.050 7.108-55.48 21.325-15.344 14.217-23.102 31.511-23.102 51.709 0 20.155 7.802 37.492 23.102 51.839 15.43 14.39 33.982 21.542 55.48 21.542 21.542 0 40.006-7.152 55.263-21.542 15.3-14.347 22.972-31.684 22.972-51.839 0-20.242-7.672-37.492-22.972-51.709z" />
<glyph unicode="&#xe96e;" glyph-name="mail-black-envelope-symbol" d="M1024 192.005c0-22.449-6.314-43.259-16.43-61.569l-323.319 361.747 319.813 279.808c12.441-19.743 19.935-42.934 19.935-67.996v-511.991zM512.001 426.5l445.010 389.373c-18.261 9.997-38.825 16.128-61.008 16.128h-768.004c-22.21 0-42.78-6.131-60.968-16.128l444.97-389.373zM636.066 450.057l-103.008-90.187c-6.025-5.249-13.528-7.87-21.058-7.87-7.534 0-15.037 2.621-21.062 7.87l-103.031 90.191-327.409-366.371c19.625-12.312 42.624-19.688 67.498-19.688h768.006c24.869 0 47.879 7.376 67.498 19.688l-327.434 366.367zM19.939 771.993c-12.439-19.743-19.939-42.934-19.939-67.998v-511.993c0-22.449 6.285-43.259 16.438-61.569l323.281 361.811-319.78 279.749z" />
<glyph unicode="&#xe96f;" glyph-name="medical" d="M883.235 587.053c-205.648 205.648-540.229 205.648-745.877 0l-137.358-137.341 140.765-140.765c102.815-102.815 237.872-154.24 372.947-154.24s270.115 51.408 372.947 154.24l137.358 137.358-140.783 140.748zM862.184 333.405c-192.156-192.138-504.804-192.138-696.96 0l-116.307 116.307 112.899 112.899c192.156 192.138 504.804 192.138 696.96 0l116.307-116.307-112.899-112.899zM494.218 586.897c-66.768 0-121.081-54.314-121.081-121.081 0-9.548 7.749-17.297 17.297-17.297s17.297 7.749 17.297 17.297c0 47.689 38.798 86.486 86.486 86.486 9.548 0 17.297 7.749 17.297 17.297s-7.732 17.297-17.297 17.297zM511.516 673.384c-123.987 0-224.865-100.878-224.865-224.865s100.878-224.865 224.865-224.865 224.865 100.878 224.865 224.865-100.861 224.865-224.865 224.865zM511.516 258.249c-104.908 0-190.27 85.362-190.27 190.27s85.362 190.27 190.27 190.27 190.27-85.362 190.27-190.27-85.345-190.27-190.27-190.27z" />
<glyph unicode="&#xe970;" glyph-name="menu" d="M38.642 699.17h946.717c21.33 0 38.642 17.311 38.642 38.642s-17.311 38.642-38.642 38.642h-946.717c-21.33 0-38.642-17.311-38.642-38.642s17.311-38.642 38.642-38.642zM38.642 409.358h946.717c21.33 0 38.642 17.311 38.642 38.642s-17.311 38.642-38.642 38.642h-946.717c-21.33 0-38.642-17.311-38.642-38.642s17.311-38.642 38.642-38.642zM38.642 119.547h946.717c21.33 0 38.642 17.311 38.642 38.642s-17.311 38.642-38.642 38.642h-946.717c-21.33 0-38.642-17.311-38.642-38.642s17.311-38.642 38.642-38.642z" />
<glyph unicode="&#xe971;" glyph-name="minus-symbol" d="M511.984-64c-282.318 0-511.984 229.699-511.984 512.016s229.666 511.984 511.984 511.984 511.984-229.666 511.984-511.984c0.033-282.318-229.666-512.016-511.984-512.016zM511.984 901.512c-250.041 0-453.463-203.455-453.463-453.496s203.422-453.463 453.463-453.463c250.041 0 453.463 203.422 453.463 453.463s-203.389 453.496-453.463 453.496zM713.856 418.773h-403.745c-16.155 0-29.244 13.056-29.244 29.244 0 16.155 13.122 29.277 29.244 29.277h403.745c16.155 0 29.244-13.122 29.244-29.277 0-16.188-13.056-29.244-29.244-29.244z" />
<glyph unicode="&#xe972;" glyph-name="mobile-phone-auricular-part-outline-with-call-sound-lines" d="M938.82 96.736c10.352 29.479-9.422 61.234-34.389 72.375l-164.152 72.951c-7.876 3.49-17.282 5.323-27.218 5.323-20.298 0-40.66-7.537-53.106-19.632l-51.711-50.091c-7.698-7.463-21.354-12.459-34.013-12.459-5.412 0-10.161 0.955-13.765 2.775-34.881 17.483-89.744 52.404-152.979 119.488-56.159 59.574-82.793 100.358-95.257 124.084-6.978 13.315 0.307 36.314 11.254 47.254l46.015 45.978c19.135 19.113 27.733 54.286 19.6 80.117l-51.743 164.315c-7.856 24.977-34.389 50.845-65.402 50.845-42.873-1.427-103.039-16.763-146.36-81.737-66.928-100.439-62.901-293.771 60.304-431.056 114.608-127.678 284.807-268.64 286.289-269.872 3.673-3.317 91.446-81.391 219.85-81.391 12.372 0 25.007 0.767 37.644 2.261 139.768 16.929 191.029 106.559 209.14 158.473zM726.111-32.586c-11.292-1.37-22.759-2.073-34.115-2.073-115.57 0-197.106 71.064-200.723 74.267-6.998 5.828-172.995 144.042-283.595 267.262-110.229 122.815-118.847 303.502-57.722 395.212 36.363 54.556 87.27 67.475 123.594 68.704 14.814-0.062 31.401-16.36 35.841-30.37l51.763-164.315c4.86-15.474-0.918-39.101-12.392-50.576l-46.015-45.995c-18.804-18.776-29.92-56.065-16.454-81.599 13.345-25.41 41.525-68.67 99.848-130.579 66.166-70.161 124.185-107.039 161.169-125.602 7.584-3.807 16.906-5.828 26.966-5.828 20.359 0 41.196 7.913 54.35 20.698l51.696 50.103c10.362 10 34.829 14.393 48.058 8.541l164.127-72.949c12.499-5.565 23.387-22.459 18.677-35.9-15.885-45.466-61.029-124.007-185.075-139.004zM467.164 591.873c1.64-3.559 4.571-6.236 8.227-7.579 1.62-0.608 3.342-0.923 5.056-0.923 6.117 0 11.63 3.849 13.74 9.595 40.462 109.918-16.046 232.28-125.963 272.731-7.403 2.713-16.103-1.331-18.813-8.68-1.351-3.666-1.212-7.656 0.428-11.19 1.645-3.559 4.571-6.256 8.244-7.623 94.775-34.881 143.491-140.364 108.609-235.112-1.348-3.676-1.192-7.665 0.472-11.22zM554.936 533.644c1.62-0.591 3.329-0.878 5.036-0.878 6.105 0 11.658 3.849 13.765 9.59 61.848 167.959-24.53 354.901-192.521 416.769-7.406 2.795-16.103-1.351-18.816-8.699-1.351-3.673-1.175-7.656 0.47-11.19 1.64-3.562 4.574-6.256 8.227-7.606 152.808-56.277 231.377-226.358 175.144-379.149-2.798-7.564 1.071-16.004 8.694-18.836z" />
<glyph unicode="&#xe973;" glyph-name="safe, money" d="M864 32l-63.968 1.984v-65.984h-96v64h-382.016l-1.984-64h-96v62.016l-64.032 1.984c-35.328 0-64 28.672-64 64v768c0 35.328 28.672 64 64 64h704c35.328 0 64-28.672 64-64v-768c0-35.328-28.672-64-64-64zM832 832h-640v-126.656l-31.328 0.64v-98.656h31.328v-253.344h-32v-97.984h32v-128h640v704zM800 160h-576v96h32v97.984h-32v254.016h32l0.672 97.344h-32.672v94.656h576v-640zM465.984 622.016c-70.688 0-128-57.312-128-128s57.312-128 128-128c70.72 0 128 57.312 128 128s-57.28 128-128 128zM752 591.424c0 17.696-14.304 32-32 32-17.664 0-32-14.304-32-32 0-11.712 6.624-21.536 16-27.104v-169.248c-9.376-5.568-16-15.36-16-27.104 0-17.664 14.336-32 32-32 17.696 0 32 14.336 32 32 0 12.608-7.424 23.232-17.984 28.448v166.56c10.56 5.248 17.984 15.872 17.984 28.448zM464 440c-26.496 0-48 21.504-48 48 0 26.528 21.504 48 48 48 26.528 0 48-21.472 48-48 0-26.496-21.472-48-48-48z" />
<glyph unicode="&#xe974;" glyph-name="money-1" d="M560.496 245.715c6.219 20.989 14.982 40.9 25.94 59.365-32.698 6.884-65.426 11.403-102.969 13.176v132.7h142.286c-1.984-39.908-8.087-78.095-17.251-114.235 21.030 25.908 46.865 47.741 76.163 64.149 2.153 17.145 3.664 34.016 4.476 50.086h152.136c-0.517-5.987-1.193-12.015-2.016-18.032 21.623-2.175 42.463-6.967 62.238-14.073 2.988 20.967 4.539 42.399 4.539 64.169 0 249.784-203.214 452.998-453.010 452.998-249.802 0-453.028-203.214-453.028-452.998s203.226-452.998 453.020-452.998c44.173 0 86.879 6.367 127.284 18.213-19.5 36.708-30.554 78.57-30.554 122.955 0 8.415 0.402 16.734 1.171 24.937-17.907-30.533-38.905-56.778-67.453-77.546v136.279c26.5-1.459 52.092-4.533 77.029-9.146zM841.278 514.302h-152.158c-2.724 63.346-12.765 114.181-29.065 165.66 34.998 11.92 67.992 26.743 98.207 44.532 46.604-58.711 76.639-125.731 83.016-210.193zM713.741 772.31c-23.659-12.89-49.167-23.872-76.047-32.909-19.595 44.236-44.204 83.786-72.848 116.831 55.913-16.776 106.59-45.755 148.895-83.923zM483.479 846.963c42.23-30.712 67.939-73.407 91.598-124.254-29.53-6.229-59.926-10.284-91.598-12.015v136.269zM483.479 647.309c42.23 1.984 78.391 7.063 115.247 15.477 14.559-45.841 24.377-95.684 27.027-148.473h-142.276v132.996zM340.918 856.171c-29.224-33.531-54.044-73.693-73.713-118.669-27.355 8.848-53.337 19.69-77.473 32.485 42.747 39.243 94.248 69.048 151.186 86.183zM145.622 721.856c30.66-17.579 64.085-32.38 99.527-44.025-15.783-50.845-25.56-110.739-28.2-163.527h-152.21c6.303 73.902 35.495 149.327 80.883 207.552zM64.74 450.957h152.158c2.66-52.788 12.5-112.555 28.485-163.644-35.432-11.624-68.847-26.395-99.505-43.962-45.526 58.288-74.824 133.702-81.137 207.606zM190.081 195.735c24.134 12.775 50.117 23.597 77.493 32.433 19.627-44.765 44.342-84.81 73.176-118.245-56.737 17.102-108.047 46.769-150.669 85.812zM420.133 118.568c-31.674 30.986-68.382 74.232-92.127 125.636 29.741 5.933 60.453 9.576 92.127 10.97v-136.605zM420.133 318.595c-42.23-1.585-77.356-6.725-114.392-14.759-14.369 45.62-22.848 94.344-25.444 147.131h139.846v-132.372h-0.010zM420.133 514.302h-139.826c2.67 52.788 11.17 101.386 25.613 146.994 36.983-8.023 71.971-12.743 114.203-14.338v-132.657h0.010zM420.133 710.368c-31.674 1.384-62.047 5.005-91.641 10.874 23.713 51.257 59.968 94.481 91.641 125.435v-136.309zM765.706 218.401c0-6.43 2.46-11.339 7.359-14.717 4.887-3.358 12.321-5.955 22.277-7.802v44.089c-11.19-1.225-18.919-3.716-23.206-7.454-4.287-3.746-6.43-8.456-6.43-14.115zM853.345 137.658c-4.677 3.295-11.835 5.774-21.486 7.464v-43.18c18.993 2.44 28.485 9.48 28.485 21.136 0.002 6.428-2.332 11.296-6.999 14.58zM813.141 381.698c-116.452 0-210.859-94.397-210.859-210.859 0-116.452 94.397-210.859 210.859-210.859s210.859 94.397 210.859 210.859-94.407 210.859-210.859 210.859zM890.319 77.827c-13.704-11.19-33.193-18.149-58.458-20.893v-23.659h-36.509v22.51c-15.014 0.465-29.139 1.805-42.379 4.022-13.25 2.217-24.24 5.321-32.96 9.301v45.018c5.965-2.143 11.783-4.012 17.441-5.617 5.669-1.605 11.497-2.988 17.463-4.138 5.975-1.151 12.246-2.070 18.824-2.766 6.587-0.676 13.799-1.098 21.601-1.257v50.307c-9.649 1.372-19.215 3.251-28.717 5.627-9.492 2.364-18.032 5.933-25.613 10.673s-13.745 11.033-18.487 18.835c-4.75 7.802-7.126 17.907-7.126 30.312 0 10.115 1.837 19.11 5.512 26.995 3.684 7.886 8.963 14.707 15.847 20.45s15.276 10.357 25.148 13.883c9.882 3.527 21.010 5.975 33.426 7.349v23.659h36.508v-22.973c11.18-0.612 22.551-1.879 34.112-3.78 11.56-1.921 22.172-4.571 31.811-7.929v-45.483c-23.575 7.665-45.546 11.952-65.923 12.87v-50.994c9.649-1.531 19.183-3.557 28.6-6.080 9.428-2.523 17.831-6.208 25.275-11.033 7.422-4.826 13.461-11.139 18.149-18.951 4.657-7.802 6.999-17.821 6.999-30.079 0.013-19.617-6.838-34.998-20.542-46.179z" />
<glyph unicode="&#xe975;" glyph-name="money-2" d="M901.779 960h-779.555c-21.526 0-38.978-17.452-38.978-38.978v-556.826c0-21.526 17.452-38.978 38.978-38.978h38.978v-116.362c0-100.599 43.289-196.5 118.77-263.108 7.12-6.283 16.293-9.752 25.79-9.752l412.486 0.005c9.498 0 18.67 3.469 25.793 9.752 75.471 66.61 118.757 162.506 118.757 263.1v116.362h38.98c21.526 0 38.978 17.452 38.978 38.978v556.828c0 21.526-17.452 38.978-38.978 38.978zM718.414 403.177h-323.349v12.99c0.003 31.237-12.161 60.603-34.248 82.687-22.085 22.087-51.451 34.248-82.682 34.248-18.59 0-36.501-4.34-52.628-12.486-19.593 12.972-41.368 22.082-64.305 26.931v190.115c72.137 15.318 129.063 72.241 144.381 144.381h412.832c15.321-72.14 72.244-129.063 144.387-144.381v-190.102c-72.143-15.321-129.066-72.244-144.387-144.384zM784.843 208.86c0-73.455-29.685-143.701-81.9-194.899l-381.873-0.005c-52.23 51.199-81.91 121.439-81.91 194.904v207.312c0 10.41 4.054 20.196 11.415 27.557 7.364 7.362 17.153 11.418 27.565 11.418 10.41 0 20.196-4.054 27.557-11.415s11.415-17.15 11.415-27.562v-129.926c0-21.526 17.452-38.978 38.978-38.978 64.989 0 117.861-52.872 117.861-117.861 0-21.526 17.452-38.978 38.978-38.978s38.978 17.452 38.978 38.978c0 94.63-67.478 173.786-156.839 191.911v3.906h389.777v-116.362zM512.001 754.657c-79.218 0-141.274-49.216-141.274-112.045 0-62.827 62.055-112.043 141.274-112.043 79.216 0 141.268 49.216 141.268 112.043s-62.053 112.045-141.268 112.045z" />
<glyph unicode="&#xe976;" glyph-name="money-3" d="M297.516 375.257c28.777 0 56.593 1.859 82.914 5.319v288.507c-26.319 3.458-54.137 5.316-82.914 5.316-164.312 0-297.513-60.412-297.513-134.938v-29.264c0-74.523 133.202-134.941 297.513-134.941zM297.516 224.609c28.777 0 56.593 1.859 82.914 5.314v84.567c-26.327-3.458-54.13-5.342-82.914-5.342-143.426 0-263.137 46.034-291.256 107.301-4.095-8.924-6.257-18.165-6.257-27.637v-29.264c0-74.526 133.202-134.938 297.513-134.938zM380.428 157.264v6.573c-26.327-3.458-54.13-5.342-82.914-5.342-143.426 0-263.137 46.034-291.256 107.301-4.095-8.922-6.257-18.162-6.257-27.635v-29.264c0-74.528 133.202-134.941 297.513-134.941 32.859 0 64.464 2.422 94.019 6.884-7.326 14.985-11.104 30.789-11.104 47.161v29.262zM726.489 902.938c-164.312 0-297.513-60.412-297.513-134.938v-29.264c0-74.526 133.202-134.938 297.513-134.938 164.309 0 297.513 60.412 297.513 134.938v29.264c0 74.526-133.204 134.938-297.513 134.938zM726.489 537.687c-143.426 0-263.137 46.032-291.256 107.301-4.095-8.922-6.257-18.162-6.257-27.637v-29.264c0-74.526 133.202-134.938 297.513-134.938 164.309 0 297.513 60.412 297.513 134.938v29.264c0 9.475-2.162 18.716-6.257 27.637-28.119-61.269-147.83-107.301-291.256-107.301zM726.489 387.034c-143.426 0-263.137 46.034-291.256 107.301-4.095-8.922-6.257-18.162-6.257-27.637v-29.264c0-74.528 133.202-134.941 297.513-134.941 164.309 0 297.513 60.412 297.513 134.941v29.264c0 9.475-2.162 18.716-6.257 27.637-28.119-61.269-147.83-107.301-291.256-107.301zM726.489 228.251c-143.426 0-263.137 46.034-291.256 107.301-4.095-8.924-6.257-18.162-6.257-27.635v-29.267c0-74.526 133.202-134.938 297.513-134.938 164.309 0 297.513 60.412 297.513 134.938v29.267c0 9.473-2.162 18.716-6.257 27.635-28.119-61.264-147.83-107.301-291.256-107.301zM726.489 77.601c-143.426 0-263.137 46.032-291.256 107.298-4.095-8.924-6.257-18.167-6.257-27.635v-29.264c0-74.526 133.202-134.938 297.513-134.938 164.309 0 297.513 60.412 297.513 134.938v29.267c0 9.473-2.162 18.716-6.257 27.635-28.119-61.267-147.83-107.301-291.256-107.301z" />
<glyph unicode="&#xe977;" glyph-name="more-button-of-circular-shape" d="M523.13 514.783h-22.261c-30.742 0-55.652-24.91-55.652-55.652v-22.261c0-30.742 24.91-55.652 55.652-55.652h22.261c30.742 0 55.652 24.91 55.652 55.652v22.261c0 30.742-24.91 55.652-55.652 55.652zM322.783 514.783h-22.261c-30.742 0-55.652-24.91-55.652-55.652v-22.261c0-30.742 24.91-55.652 55.652-55.652h22.261c30.742 0 55.652 24.91 55.652 55.652v22.261c0 30.742-24.91 55.652-55.652 55.652zM512 960c-282.78 0-512-229.242-512-512s229.22-512 512-512c282.758 0 512 229.242 512 512s-229.242 512-512 512zM512 25.043c-233.583 0-422.957 189.373-422.957 422.957s189.373 422.957 422.957 422.957 422.957-189.373 422.957-422.957-189.373-422.957-422.957-422.957zM723.478 514.783h-22.261c-30.742 0-55.652-24.91-55.652-55.652v-22.261c0-30.742 24.91-55.652 55.652-55.652h22.261c30.742 0 55.652 24.91 55.652 55.652v22.261c0 30.742-24.91 55.652-55.652 55.652z" />
<glyph unicode="&#xe978;" glyph-name="multiply" d="M1024 913.461l-46.539 46.539-465.461-465.461-465.461 465.461-46.539-46.539 465.461-465.461-465.461-465.461 46.539-46.539 465.461 465.461 465.461-465.461 46.539 46.539-465.461 465.461z" />
<glyph unicode="&#xe979;" glyph-name="multiply-1" d="M0 960v-1024h1024v1024h-1024zM792.132 221.286l-48.265-48.265-229.291 229.291-229.291-229.291-48.265 48.265 229.291 229.291-229.291 229.291 48.265 48.265 229.291-229.291 229.291 229.291 48.265-48.265-229.291-229.291 229.291-229.291z" />
<glyph unicode="&#xe97a;" glyph-name="navigate-up-arrow" d="M562.694 718.856l440.291-440.311c28.022-28.009 28.022-73.406 0-101.401-27.997-27.997-73.406-27.997-101.401 0l-389.583 389.595-389.581-389.595c-28.011-27.997-73.415-27.997-101.411 0-28.009 27.997-28.009 73.406 0 101.415l440.298 440.311c14.005 13.992 32.342 20.983 50.694 20.983 18.345 0 36.695-7.005 50.694-20.997z" />
<glyph unicode="&#xe97b;" glyph-name="network" d="M912.291 960c-61.608 0-111.709-50.102-111.709-111.709 0-19.27 4.897-37.404 13.517-53.248l-182.998-182.998c-25.228 19.642-56.804 31.446-91.173 31.446s-65.946-11.804-91.192-31.427l-142.783 142.783c6.554 11.078 10.557 23.813 10.557 37.59 0 41.072-33.401 74.473-74.473 74.473s-74.473-33.401-74.473-74.473 33.401-74.473 74.473-74.473c13.777 0 26.512 4.003 37.59 10.557l142.783-142.783c-19.624-25.246-31.427-56.823-31.427-91.192s11.804-65.946 31.427-91.173l-235.781-235.799c-19.847 18.004-46.080 29.082-74.92 29.082-61.608 0-111.709-50.102-111.709-111.709s50.102-111.709 111.709-111.709 111.709 50.102 111.709 111.709c0 19.27-4.897 37.404-13.517 53.248l238.853 238.853c20.592-16.012 45.428-26.736 72.574-30.143v-189.161c-52.745-8.899-93.091-54.775-93.091-110.033 0-61.608 50.102-111.709 111.709-111.709s111.709 50.102 111.709 111.709c0 55.24-40.346 101.115-93.091 110.033v189.161c27.145 3.407 51.982 14.131 72.574 30.143l142.783-142.783c-6.572-11.096-10.575-23.831-10.575-37.609 0-41.072 33.401-74.473 74.473-74.473s74.473 33.401 74.473 74.473-33.401 74.473-74.473 74.473c-13.777 0-26.512-4.003-37.59-10.557l-142.783 142.783c19.624 25.246 31.427 56.823 31.427 91.192s-11.804 65.946-31.427 91.173l179.945 179.945c19.828-18.004 46.061-29.082 74.901-29.082 61.608 0 111.709 50.102 111.709 111.709s-50.102 111.709-111.709 111.709z" />
<glyph unicode="&#xe97c;" glyph-name="note" d="M39.348-6.113c0-31.951 25.934-57.886 57.886-57.886h620.658c31.952 0 57.886 25.935 57.886 57.886v327.401l-41.909-91.152c-6.456-14.116-17.071-25.497-30.53-33.157l-0.438-0.219-121.133-66.201c-7.331-4.048-15.649-6.128-24.073-6.128-11.272 0-22.323 3.83-31.077 10.833-9.192 7.33-15.648 17.617-18.055 29.215l-22.432 107.784h-269.295c-15.101 0-27.356 12.255-27.356 27.356s12.256 27.356 27.356 27.356h263.495c1.094 5.909 2.954 11.707 5.471 17.179l35.125 76.38h-304.092c-15.101 0-27.356 12.255-27.356 27.356s12.256 27.356 27.356 27.356h329.26l146.629 318.535 0.219-0.109 0.875 1.97 31.733 68.828c-2.517 0.328-5.143 0.547-7.769 0.547h-413.408v-19.149c0.218-1.97 0.328-4.049 0.328-6.128v-158.557c0-44.974-36.548-81.522-81.522-81.522h-158.666c-1.641 0-3.392 0.109-5.034 0.219h-20.134v-605.993zM216.835 187.46h202.436c15.101 0 27.356-12.255 27.356-27.356s-12.256-27.356-27.356-27.356h-202.436c-15.101 0-27.356 12.255-27.356 27.356s12.256 27.356 27.356 27.356zM223.182 632.6c26.919 0 48.694 21.776 48.694 48.694v158.666c0 14.663-12.037 24.402-24.511 24.402-6.018 0-12.037-2.188-17.070-7.222l-182.959-182.959c-15.319-15.319-4.486-41.581 17.18-41.581h158.666zM952.828 914.042l-88.963 40.925c-7.441 3.392-15.21 5.034-22.87 5.034-20.68 0-40.487-11.818-49.788-31.843l-18.602-40.378 188.32-86.555 18.602 40.378c12.803 27.356 0.766 59.855-26.7 72.439zM946.262 769.71l0.875 1.641-188.43 86.555-0.765-1.641-2.299-5.034-31.843-69.157 51.977-23.964 136.344-62.591zM775.778 399.854l121.462 263.933-188.32 86.555-188.211-408.811 30.53-14.555 156.806-74.409zM512.173 309.139c0.111-1.204 0.328-2.406 0.547-3.501l6.894-33.375 21.010-101.218c1.752-8.425 9.192-13.788 17.071-13.788 2.736 0 5.581 0.657 8.316 2.188l121.133 66.202c0.219 0.109 0.328 0.218 0.547 0.327l-175.519 83.163z" />
<glyph unicode="&#xe97d;" glyph-name="pair-of-banknotes" d="M526.231 631.538c-22.531-5.068-41.862-16.283-57.602-30.967h171.229c-29.35 27.528-71.41 40.516-113.627 30.967zM1022.24 425.564l-81.352 360.273c-8.611 38.048-47.387 62.759-85.633 54.099l-715.699-161.612c-18.655-4.221-34.56-15.434-44.787-31.62-8.661-13.712-12.048-30.151-10.258-46.137h151.682c3.437 10.233 5.627 20.979 6.281 32.024l539.573 121.751c22.052-40.148 64.884-65.042 111.289-63.286l45.232-200.343c-10.246-4.4-19.572-10.194-27.975-16.934v-146.845l57.573 13.011c38.494 8.698 62.751 47.104 54.076 85.619zM805.333 566.931h-733.716c-39.496 0-71.618-32.113-71.618-71.607v-369.373c0-39.492 32.121-71.618 71.618-71.618h733.724c39.492 0 71.616 32.121 71.616 71.618v369.373c-0.004 39.494-32.123 71.607-71.624 71.607zM809.694 207.954c-45.684-8.505-82.009-42.29-94.694-86.345h-553.054c-12.665 44.075-48.989 77.857-94.691 86.345v205.379c45.684 8.511 82.026 42.263 94.691 86.351h553.076c12.665-44.071 48.991-77.826 94.675-86.351l-0.004-205.379zM438.488 436.137c-69.311 0-125.511-56.175-125.511-125.486 0-69.323 56.2-125.5 125.511-125.5 69.302 0 125.5 56.175 125.5 125.5 0 69.311-56.198 125.486-125.5 125.486z" />
<glyph unicode="&#xe97e;" glyph-name="pinterest" d="M853.352 960h-682.704c-94.25 0-170.648-76.42-170.648-170.686v-682.63c0-94.266 76.398-170.684 170.648-170.684h682.704c94.25 0 170.648 76.418 170.648 170.684v682.63c0 94.266-76.398 170.686-170.648 170.686zM561.644 275.882c-46.52 3.614-66.042 26.656-102.504 48.806-20.060-105.18-44.562-206.020-117.138-258.69-22.404 158.964 32.894 278.368 58.57 405.114-43.786 73.706 5.27 222.034 97.62 185.474 113.624-44.948-98.4-274.008 43.932-302.62 148.618-29.868 209.286 257.862 117.14 351.428-133.156 135.106-387.6 3.080-356.312-190.356 7.614-47.292 56.472-61.638 19.524-126.904-85.22 18.89-110.65 86.104-107.376 175.71 5.268 146.674 131.784 249.364 258.686 263.566 160.486 17.964 311.106-58.908 331.908-209.876 23.412-170.38-72.448-354.92-244.050-341.652z" />
<glyph unicode="&#xe97f;" glyph-name="plus-button" d="M511.984-64c-282.318 0-511.984 229.699-511.984 512.016s229.666 511.984 511.984 511.984c282.318 0 511.984-229.666 511.984-511.984 0.033-282.318-229.666-512.016-511.984-512.016zM511.984 901.512c-250.074 0-453.496-203.455-453.496-453.496s203.422-453.463 453.496-453.463c250.041 0 453.463 203.422 453.463 453.463s-203.422 453.496-453.463 453.496zM713.856 418.773h-403.745c-16.155 0-29.277 13.056-29.277 29.244 0 16.155 13.089 29.277 29.277 29.277h403.745c16.155 0 29.244-13.122 29.244-29.277 0-16.188-13.056-29.244-29.244-29.244zM511.984 216.9c-16.155 0-29.277 13.089-29.277 29.244v403.745c0 16.155 13.122 29.277 29.277 29.277s29.244-13.122 29.244-29.277v-403.745c0-16.188-13.056-29.244-29.244-29.244z" />
<glyph unicode="&#xe980;" d="M676.297 960h-530.688c-14.775 0-26.752-11.977-26.752-35.218v-970.496c0-6.309 11.977-18.286 26.752-18.286h732.782c14.775 0 26.752 11.977 26.752 18.286v768.402c0 12.727-1.701 16.823-4.699 19.84l-212.773 212.773c-3.017 2.999-7.113 4.699-11.374 4.699z" />
<glyph unicode="&#xe981;" d="M878.391-64h-732.782c-14.775 0-26.752 11.977-26.752 26.752v284.105h786.286v-284.105c0-14.775-11.977-26.752-26.752-26.752z" />
<glyph unicode="&#xe982;" d="M685.714 957.239v-216.667h216.667z" />
<glyph unicode="&#xe983;" d="M317.897-9.143h-30.007v184.247h52.992c7.826 0 15.579-1.243 23.241-3.749s14.537-6.254 20.626-11.246c6.089-4.992 11.008-11.045 14.757-18.121s5.632-15.031 5.632-23.881c0-9.344-1.591-17.792-4.754-25.381s-7.589-13.97-13.257-19.127c-5.669-5.157-12.507-9.161-20.498-11.995s-16.841-4.242-26.496-4.242h-22.254v-66.505zM317.897 152.357v-72.997h27.502c3.657 0 7.278 0.622 10.88 1.883 3.584 1.243 6.875 3.291 9.874 6.126s5.413 6.784 7.241 11.867c1.829 5.083 2.743 11.374 2.743 18.871 0 2.999-0.421 6.473-1.243 10.368-0.841 3.913-2.542 7.662-5.12 11.246-2.597 3.584-6.217 6.583-10.88 8.997s-10.843 3.621-18.505 3.621h-22.491z" />
<glyph unicode="&#xe984;" d="M572.635 175.104v-184.247h-30.501l-72.247 126.994v-126.994h-30.501v184.247h30.501l72.247-126.994v126.994h30.501z" />
<glyph unicode="&#xe985;" d="M752.64 85.851v-71.241c-3.84-4.846-8.119-8.777-12.873-11.867s-9.746-5.632-14.994-7.625-10.679-3.419-16.256-4.261c-5.595-0.841-11.118-1.243-16.622-1.243-11.008 0-21.12 1.993-30.373 5.998s-17.335 9.911-24.247 17.755c-6.912 7.845-12.343 17.664-16.256 29.495s-5.87 25.509-5.87 40.997 1.957 29.129 5.87 40.869c3.913 11.758 9.326 21.541 16.256 29.367 6.912 7.845 15.031 13.787 24.375 17.883 9.326 4.096 19.419 6.126 30.245 6.126 10.002 0 19.328-1.664 27.995-4.992 8.667-3.346 16.402-8.338 23.241-14.994l-20.754-18.505c-4.005 4.846-8.594 8.338-13.751 10.496-5.175 2.158-10.496 3.255-16 3.255-6.162 0-12.050-1.152-17.627-3.493-5.595-2.341-10.587-6.29-14.994-11.867-4.425-5.595-7.881-12.782-10.368-21.632s-3.84-19.657-4.005-32.494c0.165-12.507 1.463-23.333 3.877-32.494s5.742-16.658 10.002-22.491 9.088-10.167 14.501-13.001c5.413-2.834 11.118-4.242 17.134-4.242 1.829 0 4.279 0.128 7.369 0.384 3.072 0.256 6.162 0.658 9.253 1.243 3.072 0.585 6.034 1.371 8.869 2.377s4.919 2.414 6.254 4.242v45.495h-31.25v20.498h61.001z" />
<glyph unicode="&#xe986;" d="M429.714 696.119c0-46.142-37.405-83.547-83.547-83.547s-83.547 37.405-83.547 83.547c0 46.142 37.405 83.547 83.547 83.547s83.547-37.405 83.547-83.547z" />
<glyph unicode="&#xe987;" d="M118.857 246.857h786.286v201.143l-182.857 173.714-192-210.286-100.261 100.261z" />
<glyph unicode="&#xe988;" glyph-name="profile" d="M819.439 228.028l-163.038 81.51c-15.377 7.697-24.934 23.159-24.934 40.363v57.702c3.908 4.779 8.021 10.223 12.271 16.23 21.146 29.867 38.093 63.113 50.415 98.97 24.081 11.042 39.714 34.85 39.714 61.73v68.267c0 16.435-6.144 32.358-17.067 44.8v90.778c0.956 9.387 4.71 65.263-35.703 111.36-35.055 39.987-91.938 60.262-169.097 60.262s-134.042-20.275-169.097-60.245c-40.414-46.097-36.659-101.99-35.703-111.377v-90.778c-10.923-12.442-17.067-28.365-17.067-44.8v-68.267c0-20.77 9.438-40.141 25.549-53.060 15.633-61.901 48.35-108.544 59.785-123.511v-56.474c0-16.521-9.011-31.676-23.501-39.595l-152.252-83.046c-49.51-27.017-80.247-78.797-80.247-135.185v-55.262c0-80.998 256.768-102.4 392.533-102.4s392.533 21.402 392.533 102.4v51.934c0 58.675-32.614 111.445-85.094 137.694z" />
<glyph unicode="&#xe989;" d="M676.297 960h-530.688c-14.775 0-26.752-11.977-26.752-35.218v-970.496c0-6.309 11.977-18.286 26.752-18.286h732.782c14.775 0 26.752 11.977 26.752 18.286v768.402c0 12.727-1.701 16.823-4.699 19.84l-212.773 212.773c-3.017 2.999-7.113 4.699-11.374 4.699z" />
<glyph unicode="&#xe98a;" d="M878.391-64h-732.782c-14.775 0-26.752 11.977-26.752 26.752v284.105h786.286v-284.105c0-14.775-11.977-26.752-26.752-26.752z" />
<glyph unicode="&#xe98b;" d="M317.897-9.143h-30.007v184.247h52.992c7.826 0 15.579-1.243 23.241-3.749s14.537-6.254 20.626-11.246c6.089-4.992 11.008-11.045 14.757-18.121s5.632-15.031 5.632-23.881c0-9.344-1.591-17.792-4.754-25.381s-7.589-13.97-13.257-19.127c-5.669-5.157-12.507-9.161-20.498-11.995s-16.841-4.242-26.496-4.242h-22.254v-66.505zM317.897 152.357v-72.997h27.502c3.657 0 7.278 0.622 10.88 1.883 3.584 1.243 6.875 3.291 9.874 6.126s5.413 6.784 7.241 11.867c1.829 5.083 2.743 11.374 2.743 18.871 0 2.999-0.421 6.473-1.243 10.368-0.841 3.913-2.542 7.662-5.12 11.246-2.597 3.584-6.217 6.583-10.88 8.997s-10.843 3.621-18.505 3.621h-22.491z" />
<glyph unicode="&#xe98c;" d="M543.634 41.362c0-6.656-1.371-13.129-4.133-19.383s-6.619-11.758-11.63-16.494-11.173-8.539-18.505-11.374c-7.333-2.834-15.671-4.242-24.997-4.242-4.005 0-8.119 0.219-12.379 0.622s-8.539 1.134-12.873 2.121c-4.334 1.006-8.466 2.377-12.379 4.133s-7.296 3.877-10.13 6.382l5.248 21.504c2.322-1.335 5.285-2.633 8.869-3.877s7.278-2.414 11.118-3.493c3.822-1.097 7.662-1.957 11.502-2.633 3.822-0.658 7.406-1.006 10.752-1.006 10.167 0 17.957 2.377 23.369 7.131s8.119 11.794 8.119 21.12c0 5.669-1.92 10.496-5.742 14.501-3.84 4.005-8.631 7.625-14.373 10.88s-11.959 6.491-18.633 9.746c-6.674 3.255-12.928 7.095-18.743 11.502-5.833 4.407-10.661 9.618-14.501 15.616s-5.742 13.495-5.742 22.491c0 8.155 1.499 15.415 4.498 21.742s7.040 11.721 12.123 16.128c5.083 4.407 11.008 7.79 17.755 10.13s13.879 3.493 21.376 3.493c7.662 0 15.415-0.713 23.241-2.121s14.153-3.712 18.999-6.875c-1.006-2.158-2.176-4.535-3.493-7.131-1.335-2.597-2.597-4.992-3.749-7.241-1.17-2.249-2.176-4.133-2.999-5.632-0.841-1.499-1.335-2.341-1.499-2.505-1.006 0.494-2.121 1.152-3.383 1.993s-3.054 1.664-5.376 2.505c-2.341 0.841-5.413 1.408-9.253 1.755s-8.759 0.256-14.757-0.256c-3.346-0.347-6.491-1.28-9.509-2.871s-5.669-3.529-8.009-5.87c-2.341-2.341-4.169-4.955-5.504-7.881-1.335-2.907-1.993-5.723-1.993-8.375 0-6.656 1.902-12.032 5.742-16.128 3.822-4.096 8.576-7.662 14.245-10.752s11.831-6.089 18.505-8.997c6.656-2.907 12.873-6.473 18.633-10.624s10.533-9.381 14.373-15.616c3.895-6.254 5.815-14.281 5.815-24.119z" />
<glyph unicode="&#xe98d;" d="M724.645 88.101c0-15.159-1.627-28.123-4.882-38.875s-7.369-19.749-12.379-27.008-10.624-12.965-16.878-17.134-12.288-7.278-18.121-9.381c-5.833-2.085-11.173-3.419-16-4.005-4.827-0.549-8.411-0.841-10.734-0.841h-69.742v184.247h55.497c15.506 0 29.129-2.469 40.869-7.369s21.504-11.465 29.257-19.621 13.531-17.463 17.371-27.867c3.822-10.423 5.742-21.138 5.742-32.146zM635.648 12.855c20.334 0 34.999 6.491 43.995 19.493s13.495 31.835 13.495 56.503c0 7.662-0.914 15.25-2.743 22.747-1.847 7.497-5.376 14.281-10.624 20.37s-12.379 11.008-21.376 14.757-20.663 5.632-34.999 5.632h-17.499v-139.502h29.751z" />
<glyph unicode="&#xe98e;" d="M711.205 755.877c-8.466 5.504-19.785 3.127-25.307-5.321-26.203-40.155-72.759-94.427-94.903-116.571l-50.981-50.981-51.712 51.712 50.944 50.999c32.384 32.384 114.67 99.511 148.407 111.579 0.731 0.11 1.664 0.274 2.048 0.366 9.527 2.139 15.122 11.282 13.44 20.901-1.701 9.618-11.264 16.183-20.901 14.885l-5.175-1.134c-44.599-14.866-136.357-93.403-163.694-120.759l-131.383-131.383c-1.737 0.073-3.456 0.256-5.211 0.256-54.327 0-99.895-38.857-109.403-91.721l-1.975-1.335-0.366-9.801c-0.622-17.225-5.522-74.094-42.843-83.127-9.454-2.359-15.689-11.429-14.501-21.065l2.962-16.805h128l38.144 0.549c61.568 0 111.671 50.103 111.671 111.671 0 3.529-0.201 7.003-0.53 10.459l128.896 128.878c23.863 23.863 71.771 79.689 99.675 122.441 5.522 8.466 3.145 19.785-5.303 25.307zM376.795 393.691h-68.37l0.274-0.549h-30.373c16.219 24.521 21.23 55.534 22.747 73.966l1.499 9.216c3.895 38.51 35.803 67.547 74.24 67.547 2.213 0 4.297-0.457 6.473-0.658l3.054-0.384c19.109-2.45 35.767-11.977 47.543-25.801 1.061-1.262 2.158-2.469 3.127-3.803 1.499-2.011 2.834-4.151 4.133-6.309 0.914-1.554 1.774-3.145 2.597-4.754 1.152-2.304 2.267-4.645 3.182-7.077 0.549-1.463 0.951-2.999 1.408-4.517 0.823-2.688 1.664-5.376 2.194-8.21l0.091-0.475c0.75-4.279 1.317-8.613 1.317-13.093-0.037-41.399-33.719-75.099-75.136-75.099zM466.578 534.912c-0.128 0.165-0.238 0.311-0.366 0.475-11.063 14.83-25.691 26.789-42.642 34.651l38.821 38.821 51.712-51.712-37.87-37.851c-2.761 5.486-6.016 10.697-9.655 15.616z" />
<glyph unicode="&#xe98f;" d="M685.714 957.239v-216.667h216.667z" />
<glyph unicode="&#xe990;" glyph-name="question-mark" d="M505.166 959.955c-282.746-3.784-508.872-236.088-505.11-518.845 3.784-282.635 236.065-508.828 518.801-505.066 282.691 3.807 508.861 236.11 505.099 518.845-3.784 282.657-236.077 508.839-518.79 505.066zM503.652 136.348l-2.827 0.045c-43.542 1.291-74.24 33.369-73.005 76.266 1.213 42.162 32.657 72.771 74.763 72.771l2.527-0.045c44.755-1.325 75.108-33.080 73.85-77.212-1.247-42.285-32.2-71.825-75.309-71.825zM686.803 499.857c-10.24-14.547-32.757-32.612-61.128-54.717l-31.243-21.571c-17.152-13.334-27.503-25.878-31.388-38.222-3.061-9.717-4.563-12.288-4.831-32.056l-0.045-5.020h-119.296l0.345 10.095c1.458 41.494 2.482 65.903 19.679 86.072 26.98 31.677 86.495 69.999 89.021 71.624 8.526 6.422 15.716 13.735 21.070 21.549 12.522 17.263 18.065 30.854 18.065 44.21 0 18.532-5.498 35.673-16.373 50.933-10.451 14.726-30.308 22.183-59.025 22.183-28.483 0-47.983-9.038-59.648-27.581-11.999-19.066-18.065-39.090-18.065-59.548v-5.087h-123.002l0.223 5.309c3.172 75.342 30.063 129.592 79.894 161.247 31.31 20.157 70.266 30.375 115.723 30.375 59.503 0 109.735-14.458 149.281-42.975 40.070-28.895 60.394-72.17 60.394-128.623 0-31.577-9.973-61.24-29.651-88.198z" />
</font>
</defs>
</svg>
